<svg xmlns="http://www.w3.org/2000/svg" version="1.1" xmlns:xlink="http://www.w3.org/1999/xlink" xmlns:svgjs="http://svgjs.dev/svgjs" viewBox="0 0 800 800" opacity="1"><g stroke-width="0.5" stroke="#12588c" fill="none" stroke-linecap="round" transform="matrix(1,0,0,1,-5,-80.25773620605469)"><path d="M10,10C21.805555555555557,10.625,40.97222222222223,21.541666666666664,66.66666666666667,13C92.36111111111111,4.458333333333334,105.55555555555557,-36.416666666666664,133.33333333333334,-31C161.11111111111111,-25.583333333333336,172.22222222222223,38.583333333333336,200,39C227.77777777777777,39.416666666666664,238.8888888888889,-30.666666666666668,266.6666666666667,-29C294.44444444444446,-27.333333333333332,305.5555555555556,42.416666666666664,333.33333333333337,47C361.11111111111114,51.583333333333336,372.22222222222223,-2.208333333333333,400,-7C427.77777777777777,-11.791666666666668,438.8888888888889,25.666666666666668,466.6666666666667,24C494.44444444444446,22.333333333333332,505.5555555555556,-21.25,533.3333333333334,-15C561.1111111111111,-8.75,572.2222222222222,53.166666666666664,600,54C627.7777777777778,54.833333333333336,638.8888888888889,-10.791666666666666,666.6666666666667,-11C694.4444444444446,-11.208333333333334,705.5555555555557,54.041666666666664,733.3333333333334,53C761.1111111111111,51.958333333333336,786.1111111111111,-1.625,800,-16"></path><path d="M10,10C21.805555555555557,10.625,40.97222222222223,21.541666666666664,66.66666666666667,13C92.36111111111111,4.458333333333334,105.55555555555557,-36.416666666666664,133.33333333333334,-31C161.11111111111111,-25.583333333333336,172.22222222222223,38.583333333333336,200,39C227.77777777777777,39.416666666666664,238.8888888888889,-30.666666666666668,266.6666666666667,-29C294.44444444444446,-27.333333333333332,305.5555555555556,42.416666666666664,333.33333333333337,47C361.11111111111114,51.583333333333336,372.22222222222223,-2.208333333333333,400,-7C427.77777777777777,-11.791666666666668,438.8888888888889,25.666666666666668,466.6666666666667,24C494.44444444444446,22.333333333333332,505.5555555555556,-21.25,533.3333333333334,-15C561.1111111111111,-8.75,572.2222222222222,53.166666666666664,600,54C627.7777777777778,54.833333333333336,638.8888888888889,-10.791666666666666,666.6666666666667,-11C694.4444444444446,-11.208333333333334,705.5555555555557,54.041666666666664,733.3333333333334,53C761.1111111111111,51.958333333333336,786.1111111111111,-1.625,800,-16" transform="matrix(1,0,0,1,0,938)"></path><path d="M10,10C21.805555555555557,10.625,40.97222222222223,21.541666666666664,66.66666666666667,13C92.36111111111111,4.458333333333334,105.55555555555557,-36.416666666666664,133.33333333333334,-31C161.11111111111111,-25.583333333333336,172.22222222222223,38.583333333333336,200,39C227.77777777777777,39.416666666666664,238.8888888888889,-30.666666666666668,266.6666666666667,-29C294.44444444444446,-27.333333333333332,305.5555555555556,42.416666666666664,333.33333333333337,47C361.11111111111114,51.583333333333336,372.22222222222223,-2.208333333333333,400,-7C427.77777777777777,-11.791666666666668,438.8888888888889,25.666666666666668,466.6666666666667,24C494.44444444444446,22.333333333333332,505.5555555555556,-21.25,533.3333333333334,-15C561.1111111111111,-8.75,572.2222222222222,53.166666666666664,600,54C627.7777777777778,54.833333333333336,638.8888888888889,-10.791666666666666,666.6666666666667,-11C694.4444444444446,-11.208333333333334,705.5555555555557,54.041666666666664,733.3333333333334,53C761.1111111111111,51.958333333333336,786.1111111111111,-1.625,800,-16" transform="matrix(1,0,0,1,0,871)"></path><path d="M10,10C21.805555555555557,10.625,40.97222222222223,21.541666666666664,66.66666666666667,13C92.36111111111111,4.458333333333334,105.55555555555557,-36.416666666666664,133.33333333333334,-31C161.11111111111111,-25.583333333333336,172.22222222222223,38.583333333333336,200,39C227.77777777777777,39.416666666666664,238.8888888888889,-30.666666666666668,266.6666666666667,-29C294.44444444444446,-27.333333333333332,305.5555555555556,42.416666666666664,333.33333333333337,47C361.11111111111114,51.583333333333336,372.22222222222223,-2.208333333333333,400,-7C427.77777777777777,-11.791666666666668,438.8888888888889,25.666666666666668,466.6666666666667,24C494.44444444444446,22.333333333333332,505.5555555555556,-21.25,533.3333333333334,-15C561.1111111111111,-8.75,572.2222222222222,53.166666666666664,600,54C627.7777777777778,54.833333333333336,638.8888888888889,-10.791666666666666,666.6666666666667,-11C694.4444444444446,-11.208333333333334,705.5555555555557,54.041666666666664,733.3333333333334,53C761.1111111111111,51.958333333333336,786.1111111111111,-1.625,800,-16" transform="matrix(1,0,0,1,0,804)"></path><path d="M10,10C21.805555555555557,10.625,40.97222222222223,21.541666666666664,66.66666666666667,13C92.36111111111111,4.458333333333334,105.55555555555557,-36.416666666666664,133.33333333333334,-31C161.11111111111111,-25.583333333333336,172.22222222222223,38.583333333333336,200,39C227.77777777777777,39.416666666666664,238.8888888888889,-30.666666666666668,266.6666666666667,-29C294.44444444444446,-27.333333333333332,305.5555555555556,42.416666666666664,333.33333333333337,47C361.11111111111114,51.583333333333336,372.22222222222223,-2.208333333333333,400,-7C427.77777777777777,-11.791666666666668,438.8888888888889,25.666666666666668,466.6666666666667,24C494.44444444444446,22.333333333333332,505.5555555555556,-21.25,533.3333333333334,-15C561.1111111111111,-8.75,572.2222222222222,53.166666666666664,600,54C627.7777777777778,54.833333333333336,638.8888888888889,-10.791666666666666,666.6666666666667,-11C694.4444444444446,-11.208333333333334,705.5555555555557,54.041666666666664,733.3333333333334,53C761.1111111111111,51.958333333333336,786.1111111111111,-1.625,800,-16" transform="matrix(1,0,0,1,0,737)"></path><path d="M10,10C21.805555555555557,10.625,40.97222222222223,21.541666666666664,66.66666666666667,13C92.36111111111111,4.458333333333334,105.55555555555557,-36.416666666666664,133.33333333333334,-31C161.11111111111111,-25.583333333333336,172.22222222222223,38.583333333333336,200,39C227.77777777777777,39.416666666666664,238.8888888888889,-30.666666666666668,266.6666666666667,-29C294.44444444444446,-27.333333333333332,305.5555555555556,42.416666666666664,333.33333333333337,47C361.11111111111114,51.583333333333336,372.22222222222223,-2.208333333333333,400,-7C427.77777777777777,-11.791666666666668,438.8888888888889,25.666666666666668,466.6666666666667,24C494.44444444444446,22.333333333333332,505.5555555555556,-21.25,533.3333333333334,-15C561.1111111111111,-8.75,572.2222222222222,53.166666666666664,600,54C627.7777777777778,54.833333333333336,638.8888888888889,-10.791666666666666,666.6666666666667,-11C694.4444444444446,-11.208333333333334,705.5555555555557,54.041666666666664,733.3333333333334,53C761.1111111111111,51.958333333333336,786.1111111111111,-1.625,800,-16" transform="matrix(1,0,0,1,0,670)"></path><path d="M10,10C21.805555555555557,10.625,40.97222222222223,21.541666666666664,66.66666666666667,13C92.36111111111111,4.458333333333334,105.55555555555557,-36.416666666666664,133.33333333333334,-31C161.11111111111111,-25.583333333333336,172.22222222222223,38.583333333333336,200,39C227.77777777777777,39.416666666666664,238.8888888888889,-30.666666666666668,266.6666666666667,-29C294.44444444444446,-27.333333333333332,305.5555555555556,42.416666666666664,333.33333333333337,47C361.11111111111114,51.583333333333336,372.22222222222223,-2.208333333333333,400,-7C427.77777777777777,-11.791666666666668,438.8888888888889,25.666666666666668,466.6666666666667,24C494.44444444444446,22.333333333333332,505.5555555555556,-21.25,533.3333333333334,-15C561.1111111111111,-8.75,572.2222222222222,53.166666666666664,600,54C627.7777777777778,54.833333333333336,638.8888888888889,-10.791666666666666,666.6666666666667,-11C694.4444444444446,-11.208333333333334,705.5555555555557,54.041666666666664,733.3333333333334,53C761.1111111111111,51.958333333333336,786.1111111111111,-1.625,800,-16" transform="matrix(1,0,0,1,0,603)"></path><path d="M10,10C21.805555555555557,10.625,40.97222222222223,21.541666666666664,66.66666666666667,13C92.36111111111111,4.458333333333334,105.55555555555557,-36.416666666666664,133.33333333333334,-31C161.11111111111111,-25.583333333333336,172.22222222222223,38.583333333333336,200,39C227.77777777777777,39.416666666666664,238.8888888888889,-30.666666666666668,266.6666666666667,-29C294.44444444444446,-27.333333333333332,305.5555555555556,42.416666666666664,333.33333333333337,47C361.11111111111114,51.583333333333336,372.22222222222223,-2.208333333333333,400,-7C427.77777777777777,-11.791666666666668,438.8888888888889,25.666666666666668,466.6666666666667,24C494.44444444444446,22.333333333333332,505.5555555555556,-21.25,533.3333333333334,-15C561.1111111111111,-8.75,572.2222222222222,53.166666666666664,600,54C627.7777777777778,54.833333333333336,638.8888888888889,-10.791666666666666,666.6666666666667,-11C694.4444444444446,-11.208333333333334,705.5555555555557,54.041666666666664,733.3333333333334,53C761.1111111111111,51.958333333333336,786.1111111111111,-1.625,800,-16" transform="matrix(1,0,0,1,0,536)"></path><path d="M10,10C21.805555555555557,10.625,40.97222222222223,21.541666666666664,66.66666666666667,13C92.36111111111111,4.458333333333334,105.55555555555557,-36.416666666666664,133.33333333333334,-31C161.11111111111111,-25.583333333333336,172.22222222222223,38.583333333333336,200,39C227.77777777777777,39.416666666666664,238.8888888888889,-30.666666666666668,266.6666666666667,-29C294.44444444444446,-27.333333333333332,305.5555555555556,42.416666666666664,333.33333333333337,47C361.11111111111114,51.583333333333336,372.22222222222223,-2.208333333333333,400,-7C427.77777777777777,-11.791666666666668,438.8888888888889,25.666666666666668,466.6666666666667,24C494.44444444444446,22.333333333333332,505.5555555555556,-21.25,533.3333333333334,-15C561.1111111111111,-8.75,572.2222222222222,53.166666666666664,600,54C627.7777777777778,54.833333333333336,638.8888888888889,-10.791666666666666,666.6666666666667,-11C694.4444444444446,-11.208333333333334,705.5555555555557,54.041666666666664,733.3333333333334,53C761.1111111111111,51.958333333333336,786.1111111111111,-1.625,800,-16" transform="matrix(1,0,0,1,0,469)"></path><path d="M10,10C21.805555555555557,10.625,40.97222222222223,21.541666666666664,66.66666666666667,13C92.36111111111111,4.458333333333334,105.55555555555557,-36.416666666666664,133.33333333333334,-31C161.11111111111111,-25.583333333333336,172.22222222222223,38.583333333333336,200,39C227.77777777777777,39.416666666666664,238.8888888888889,-30.666666666666668,266.6666666666667,-29C294.44444444444446,-27.333333333333332,305.5555555555556,42.416666666666664,333.33333333333337,47C361.11111111111114,51.583333333333336,372.22222222222223,-2.208333333333333,400,-7C427.77777777777777,-11.791666666666668,438.8888888888889,25.666666666666668,466.6666666666667,24C494.44444444444446,22.333333333333332,505.5555555555556,-21.25,533.3333333333334,-15C561.1111111111111,-8.75,572.2222222222222,53.166666666666664,600,54C627.7777777777778,54.833333333333336,638.8888888888889,-10.791666666666666,666.6666666666667,-11C694.4444444444446,-11.208333333333334,705.5555555555557,54.041666666666664,733.3333333333334,53C761.1111111111111,51.958333333333336,786.1111111111111,-1.625,800,-16" transform="matrix(1,0,0,1,0,402)"></path><path d="M10,10C21.805555555555557,10.625,40.97222222222223,21.541666666666664,66.66666666666667,13C92.36111111111111,4.458333333333334,105.55555555555557,-36.416666666666664,133.33333333333334,-31C161.11111111111111,-25.583333333333336,172.22222222222223,38.583333333333336,200,39C227.77777777777777,39.416666666666664,238.8888888888889,-30.666666666666668,266.6666666666667,-29C294.44444444444446,-27.333333333333332,305.5555555555556,42.416666666666664,333.33333333333337,47C361.11111111111114,51.583333333333336,372.22222222222223,-2.208333333333333,400,-7C427.77777777777777,-11.791666666666668,438.8888888888889,25.666666666666668,466.6666666666667,24C494.44444444444446,22.333333333333332,505.5555555555556,-21.25,533.3333333333334,-15C561.1111111111111,-8.75,572.2222222222222,53.166666666666664,600,54C627.7777777777778,54.833333333333336,638.8888888888889,-10.791666666666666,666.6666666666667,-11C694.4444444444446,-11.208333333333334,705.5555555555557,54.041666666666664,733.3333333333334,53C761.1111111111111,51.958333333333336,786.1111111111111,-1.625,800,-16" transform="matrix(1,0,0,1,0,335)"></path><path d="M10,10C21.805555555555557,10.625,40.97222222222223,21.541666666666664,66.66666666666667,13C92.36111111111111,4.458333333333334,105.55555555555557,-36.416666666666664,133.33333333333334,-31C161.11111111111111,-25.583333333333336,172.22222222222223,38.583333333333336,200,39C227.77777777777777,39.416666666666664,238.8888888888889,-30.666666666666668,266.6666666666667,-29C294.44444444444446,-27.333333333333332,305.5555555555556,42.416666666666664,333.33333333333337,47C361.11111111111114,51.583333333333336,372.22222222222223,-2.208333333333333,400,-7C427.77777777777777,-11.791666666666668,438.8888888888889,25.666666666666668,466.6666666666667,24C494.44444444444446,22.333333333333332,505.5555555555556,-21.25,533.3333333333334,-15C561.1111111111111,-8.75,572.2222222222222,53.166666666666664,600,54C627.7777777777778,54.833333333333336,638.8888888888889,-10.791666666666666,666.6666666666667,-11C694.4444444444446,-11.208333333333334,705.5555555555557,54.041666666666664,733.3333333333334,53C761.1111111111111,51.958333333333336,786.1111111111111,-1.625,800,-16" transform="matrix(1,0,0,1,0,268)"></path><path d="M10,10C21.805555555555557,10.625,40.97222222222223,21.541666666666664,66.66666666666667,13C92.36111111111111,4.458333333333334,105.55555555555557,-36.416666666666664,133.33333333333334,-31C161.11111111111111,-25.583333333333336,172.22222222222223,38.583333333333336,200,39C227.77777777777777,39.416666666666664,238.8888888888889,-30.666666666666668,266.6666666666667,-29C294.44444444444446,-27.333333333333332,305.5555555555556,42.416666666666664,333.33333333333337,47C361.11111111111114,51.583333333333336,372.22222222222223,-2.208333333333333,400,-7C427.77777777777777,-11.791666666666668,438.8888888888889,25.666666666666668,466.6666666666667,24C494.44444444444446,22.333333333333332,505.5555555555556,-21.25,533.3333333333334,-15C561.1111111111111,-8.75,572.2222222222222,53.166666666666664,600,54C627.7777777777778,54.833333333333336,638.8888888888889,-10.791666666666666,666.6666666666667,-11C694.4444444444446,-11.208333333333334,705.5555555555557,54.041666666666664,733.3333333333334,53C761.1111111111111,51.958333333333336,786.1111111111111,-1.625,800,-16" transform="matrix(1,0,0,1,0,201)"></path><path d="M10,10C21.805555555555557,10.625,40.97222222222223,21.541666666666664,66.66666666666667,13C92.36111111111111,4.458333333333334,105.55555555555557,-36.416666666666664,133.33333333333334,-31C161.11111111111111,-25.583333333333336,172.22222222222223,38.583333333333336,200,39C227.77777777777777,39.416666666666664,238.8888888888889,-30.666666666666668,266.6666666666667,-29C294.44444444444446,-27.333333333333332,305.5555555555556,42.416666666666664,333.33333333333337,47C361.11111111111114,51.583333333333336,372.22222222222223,-2.208333333333333,400,-7C427.77777777777777,-11.791666666666668,438.8888888888889,25.666666666666668,466.6666666666667,24C494.44444444444446,22.333333333333332,505.5555555555556,-21.25,533.3333333333334,-15C561.1111111111111,-8.75,572.2222222222222,53.166666666666664,600,54C627.7777777777778,54.833333333333336,638.8888888888889,-10.791666666666666,666.6666666666667,-11C694.4444444444446,-11.208333333333334,705.5555555555557,54.041666666666664,733.3333333333334,53C761.1111111111111,51.958333333333336,786.1111111111111,-1.625,800,-16" transform="matrix(1,0,0,1,0,134)"></path><path d="M10,10C21.805555555555557,10.625,40.97222222222223,21.541666666666664,66.66666666666667,13C92.36111111111111,4.458333333333334,105.55555555555557,-36.416666666666664,133.33333333333334,-31C161.11111111111111,-25.583333333333336,172.22222222222223,38.583333333333336,200,39C227.77777777777777,39.416666666666664,238.8888888888889,-30.666666666666668,266.6666666666667,-29C294.44444444444446,-27.333333333333332,305.5555555555556,42.416666666666664,333.33333333333337,47C361.11111111111114,51.583333333333336,372.22222222222223,-2.208333333333333,400,-7C427.77777777777777,-11.791666666666668,438.8888888888889,25.666666666666668,466.6666666666667,24C494.44444444444446,22.333333333333332,505.5555555555556,-21.25,533.3333333333334,-15C561.1111111111111,-8.75,572.2222222222222,53.166666666666664,600,54C627.7777777777778,54.833333333333336,638.8888888888889,-10.791666666666666,666.6666666666667,-11C694.4444444444446,-11.208333333333334,705.5555555555557,54.041666666666664,733.3333333333334,53C761.1111111111111,51.958333333333336,786.1111111111111,-1.625,800,-16" transform="matrix(1,0,0,1,0,67)"></path></g></svg>