<svg xmlns="http://www.w3.org/2000/svg" version="1.1" xmlns:xlink="http://www.w3.org/1999/xlink" xmlns:svgjs="http://svgjs.dev/svgjs" viewBox="0 0 800 800" opacity="0.1"><g stroke-width="1.5" stroke="#77afa3" fill="none"><path d="M160.7848414981222 -3050.1281970798623C308.8111626948066 -3135.575840795854 491.1887762700371 -3135.575840795854 639.2150974667215 -3050.1042755670637L3268.285040065367 -1532.2125239682885C3416.311361262051 -1446.7648802522965 3507.500168049666 -1288.8111312442634 3507.500168049666 -1117.8919222994805V1917.89158089807C3507.500168049666 2088.8107898428534 3416.311361262051 2246.7645388508863 3268.285040065367 2332.236104079676L639.2150974667215 3850.127855678451C491.1887762700371 3935.575499394443 308.8111626948066 3935.575499394443 160.7848414981222 3850.1039341656533L-2468.285101100523 2332.2121825668783C-2616.3114222972076 2246.7645388508863 -2707.500229084823 2088.8107898428534 -2707.500229084823 1917.89158089807V-1117.8919222994805C-2707.500229084823 -1288.8111312442634 -2616.3114222972076 -1446.7648802522965 -2468.285101100523 -1532.2364454810863L160.7848414981222 -3050.1281970798623Z " transform="rotate(412.5, 400, 400)" opacity="0.05"></path><path d="M165.134176943895 -2987.3985596498233C310.46911048245784 -3071.2926098437065 489.53076744722966 -3071.2926098437065 634.8657009857925 -2987.3750730736215L3216.1343719008264 -1497.0813533220967C3361.4693054393892 -1413.1873031282137 3451.0001339217742 -1258.105440465781 3451.0001339217742 -1090.293853501813V1890.2935860012376C3451.0001339217742 2058.1051729652063 3361.4693054393892 2213.1870356276377 3216.1343719008264 2297.104572397722L634.8657009857925 3787.398292149248C489.53076744722966 3871.2923423431303 310.46911048245784 3871.2923423431303 165.134176943895 3787.3748055730466L-2416.134493971139 2297.081085821521C-2561.4694275097017 2213.1870356276377 -2651.0002559920877 2058.1051729652063 -2651.0002559920877 1890.2935860012376V-1090.293853501813C-2651.0002559920877 -1258.105440465781 -2561.4694275097017 -1413.1873031282137 -2416.134493971139 -1497.104839898298L165.134176943895 -2987.3985596498233Z " transform="rotate(405, 400, 400)" opacity="0.07"></path><path d="M169.48354290724592 -2924.6689222197847C312.12708878768717 -3007.0093788915588 487.87278914200033 -3007.0093788915588 630.5163350224416 -2924.645870580179L3163.983734253863 -1461.9501826759047C3306.627280134305 -1379.6097260041306 3394.5001303114614 -1227.3997496872985 3394.5001303114614 -1062.695784704144V1862.6955911044051C3394.5001303114614 2027.3995560875592 3306.627280134305 2179.609532404391 3163.983734253863 2261.9730407157704L630.5163350224416 3724.668728620045C487.87278914200033 3807.0091852918185 312.12708878768717 3807.0091852918185 169.48354290724592 3724.64567698044L-2363.9838563241765 2261.9499890761654C-2506.6274022046173 2179.609532404391 -2594.500252381774 2027.3995560875592 -2594.500252381774 1862.6955911044051V-1062.695784704144C-2594.500252381774 -1227.3997496872985 -2506.6274022046173 -1379.6097260041306 -2363.9838563241765 -1461.9732343155097L169.48354290724592 -2924.6689222197847Z " transform="rotate(397.5, 400, 400)" opacity="0.09"></path><path d="M173.83290887059684 -2861.939284789746C313.7850670929165 -2942.726147939411 486.214810836771 -2942.726147939411 626.1669690590907 -2861.9166680867365L3111.8330966069007 -1426.8190120297127C3251.7852548292212 -1346.0321488800478 3338.0001267011476 -1196.6940589088163 3338.0001267011476 -1035.097715906476V1835.0975962075718C3338.0001267011476 1996.6939392099112 3251.7852548292212 2146.032029181144 3111.8330966069007 2226.8415090338176L626.1669690590907 3661.939165090841C486.214810836771 3742.726028240506 313.7850670929165 3742.726028240506 173.83290887059684 3661.9165483878323L-2311.8332186772136 2226.818892330808C-2451.7853768995333 2146.032029181144 -2538.0002487714605 1996.6939392099112 -2538.0002487714605 1835.0975962075718V-1035.097715906476C-2538.0002487714605 -1196.6940589088163 -2451.7853768995333 -1346.0321488800478 -2311.8332186772136 -1426.8416287327216L173.83290887059684 -2861.939284789746Z " transform="rotate(390, 400, 400)" opacity="0.10"></path><path d="M178.18227483394776 -2799.2096626184966C315.44304539814584 -2878.442932246053 484.55683253154166 -2878.442932246053 621.8176030957397 -2799.1874808520834L3059.682458959939 -1391.68785664231C3196.9432295241368 -1312.4545870147538 3281.5001230908347 -1165.988383389123 3281.5001230908347 -1007.499662367597V1807.4995860519502C3281.5001230908347 1965.9883070734759 3196.9432295241368 2112.4545106991063 3059.682458959939 2191.709962093075L621.8176030957397 3599.209586302849C484.55683253154166 3678.442855930404 315.44304539814584 3678.442855930404 178.18227483394776 3599.1874045364357L-2259.6825810302507 2191.6877803266625C-2396.9433515944493 2112.4545106991063 -2481.5002451611467 1965.9883070734759 -2481.5002451611467 1807.4995860519502V-1007.499662367597C-2481.5002451611467 -1165.988383389123 -2396.9433515944493 -1312.4545870147538 -2259.6825810302507 -1391.7100384087225L178.18227483394776 -2799.2096626184966Z " transform="rotate(382.5, 400, 400)" opacity="0.12"></path><path d="M182.53164079729868 -2736.480269329083C317.1010237033752 -2814.15994543453 482.8988542263123 -2814.15994543453 617.4682371323888 -2736.458522499266L3007.531821312976 -1356.556930136743C3142.1012042190523 -1278.877254031296 3225.000119480521 -1135.2829367512659 3225.000119480521 -979.901837710554V1779.9013470144919C3225.000119480521 1935.2824460552038 3142.1012042190523 2078.8767633352336 3007.531821312976 2156.578186270497L617.4682371323888 3536.47977863302C482.8988542263123 3614.1594547384666 317.1010237033752 3614.1594547384666 182.53164079729868 3536.458031803203L-2207.5319433832883 2156.556439440681C-2342.101326289365 2078.8767633352336 -2425.0002415508334 1935.2824460552038 -2425.0002415508334 1779.9013470144919V-979.901837710554C-2425.0002415508334 -1135.2829367512659 -2342.101326289365 -1278.877254031296 -2207.5319433832883 -1356.5786769665592L182.53164079729868 -2736.480269329083Z " transform="rotate(375, 400, 400)" opacity="0.14"></path><path d="M186.8810067606496 -2673.750387758419C318.7590020086045 -2749.8764703417573 481.240875921083 -2749.8764703417573 613.1188711690379 -2673.7290758651984L2955.3811836660134 -1321.4255153499262C3087.259178913968 -1245.2994327665879 3168.500115870208 -1104.5770018321582 3168.500115870208 -952.3035247722607V1752.3035962582844C3168.500115870208 1904.5770733181816 3087.259178913968 2045.2995042526118 2955.3811836660134 2121.4468987291693L613.1188711690379 3473.750459244442C481.240875921083 3549.87654182778 318.7590020086045 3549.87654182778 186.8810067606496 3473.7291473512223L-2155.381305736326 2121.4255868359496C-2287.259300984281 2045.2995042526118 -2368.5002379405196 1904.5770733181816 -2368.5002379405196 1752.3035962582844V-952.3035247722607C-2368.5002379405196 -1104.5770018321582 -2287.259300984281 -1245.2994327665879 -2155.381305736326 -1321.446827243146L186.8810067606496 -2673.750387758419Z " transform="rotate(367.5, 400, 400)" opacity="0.16"></path><path d="M191.23037272400052 -2611.0209944690055C320.4169803138343 -2685.5934835302346 479.5828976158532 -2685.5934835302346 608.769505205687 -2611.000117512381L2903.230546019051 -1286.2945888443594C3032.4171536088843 -1211.72209978313 3112.000112259894 -1073.871555194301 3112.000112259894 -924.7057001152177V1724.705357220827C3112.000112259894 1873.8712122999095 3032.4171536088843 2011.7217568887381 2903.230546019051 2086.3151229065916L608.769505205687 3411.020651574614C479.5828976158532 3485.5931406358422 320.4169803138343 3485.5931406358422 191.23037272400052 3410.9997746179897L-2103.230668089363 2086.294245949968C-2232.417275679197 2011.7217568887381 -2312.0002343302062 1873.8712122999095 -2312.0002343302062 1724.705357220827V-924.7057001152177C-2312.0002343302062 -1073.871555194301 -2232.417275679197 -1211.72209978313 -2103.230668089363 -1286.3154658009828L191.23037272400052 -2611.0209944690055Z " transform="rotate(360, 400, 400)" opacity="0.17"></path><path d="M195.57973868735144 -2548.291112898342C322.07495861906364 -2621.310008437462 477.92491931062386 -2621.310008437462 604.4201392423361 -2548.270670878314L2851.0799083720885 -1251.1631740575424C2977.5751283038 -1178.1442785184222 3055.5001086495804 -1043.1656202751938 3055.5001086495804 -897.1073871769247V1697.1076064646186C3055.5001086495804 1843.1658395628874 2977.5751283038 1978.1444978061154 2851.0799083720885 2051.183835365264L604.4201392423361 3348.291332186034C477.92491931062386 3421.3102277251546 322.07495861906364 3421.3102277251546 195.57973868735144 3348.270890166008L-2051.0800304424 2051.163393345236C-2177.5752503741123 1978.1444978061154 -2255.500230719893 1843.1658395628874 -2255.500230719893 1697.1076064646186V-897.1073871769247C-2255.500230719893 -1043.1656202751938 -2177.5752503741123 -1178.1442785184222 -2051.0800304424 -1251.1836160775697L195.57973868735144 -2548.291112898342Z " transform="rotate(352.5, 400, 400)" opacity="0.19"></path><path d="M199.92907413312423 -2485.561719608928C323.73290640671485 -2557.0270216259396 476.2669104878164 -2557.0270216259396 600.070742761407 -2485.5417125254967L2798.929240207547 -1216.0322475519754C2922.733072481138 -1144.566945534964 2999.0000745216894 -1012.4601736373363 2999.0000745216894 -869.5095625198815V1669.5093674271611C2999.0000745216894 1812.4599785446162 2922.733072481138 1944.5667504422436 2798.929240207547 2016.052059542686L600.070742761407 3285.561524516207C476.2669104878164 3357.026826533219 323.73290640671485 3357.026826533219 199.92907413312423 3285.5415174327763L-1998.9294233130158 2016.0320524592553C-2122.7332555866064 1944.5667504422436 -2199.000257627157 1812.4599785446162 -2199.000257627157 1669.5093674271611V-869.5095625198815C-2199.000257627157 -1012.4601736373363 -2122.7332555866064 -1144.566945534964 -1998.9294233130158 -1216.0522546354064L199.92907413312423 -2485.561719608928Z " transform="rotate(345, 400, 400)" opacity="0.21"></path><path d="M204.27844009647515 -2422.8318532970534C325.3908847119442 -2492.743561791956 474.60893218258707 -2492.743561791956 595.7213767980561 -2422.812281150218L2746.7786025605847 -1180.9008480239474C2867.891047176053 -1110.9891395290451 2942.5000709113756 -981.7542539770182 2942.5000709113756 -841.9112648403775V1641.9116014121646C2942.5000709113756 1781.7545905488041 2867.891047176053 1910.9894761008318 2746.7786025605847 1980.9207567425683L595.7213767980561 3222.832189868839C474.60893218258707 3292.743898363742 325.3908847119442 3292.743898363742 204.27844009647515 3222.8126177220047L-1946.7787856660532 1980.9011845957339C-2067.8912302815224 1910.9894761008318 -2142.500254016844 1781.7545905488041 -2142.500254016844 1641.9116014121646V-841.9112648403775C-2142.500254016844 -981.7542539770182 -2067.8912302815224 -1110.9891395290451 -1946.7787856660532 -1180.9204201707823L204.27844009647515 -2422.8318532970534Z " transform="rotate(337.5, 400, 400)" opacity="0.23"></path><path d="M208.62780605982607 -2360.10246000764C327.0488630171735 -2428.460574980433 472.95095387735773 -2428.460574980433 591.3720108347052 -2360.083322797401L2694.6279649136222 -1145.7699215183807C2813.049021870969 -1077.4118065455873 2886.000067301062 -951.0488073391607 2886.000067301062 -814.3134401833343V1614.3133623747053C2886.000067301062 1751.048729530533 2813.049021870969 1877.411728736959 2694.6279649136222 1945.7889809199905L591.3720108347052 3160.102382199011C472.95095387735773 3228.4604971718036 327.0488630171735 3228.4604971718036 208.62780605982607 3160.083244988773L-1894.6281480190905 1945.7698437097524C-2013.049204976438 1877.411728736959 -2086.00025040653 1751.048729530533 -2086.00025040653 1614.3133623747053V-814.3134401833343C-2086.00025040653 -951.0488073391607 -2013.049204976438 -1077.4118065455873 -1894.6281480190905 -1145.789058728619L208.62780605982607 -2360.10246000764Z " transform="rotate(330, 400, 400)" opacity="0.24"></path><path d="M212.977172023177 -2297.3725936957653C328.70684132240285 -2364.1771151464495 471.2929755721284 -2364.1771151464495 587.0226448713543 -2297.3538914221226L2642.47732726666 -1110.638521990353C2758.2069965658848 -1043.8340005396685 2829.500063690748 -920.3428876788425 2829.500063690748 -786.7151425038303V1586.7155963597088C2829.500063690748 1720.3433415347208 2758.2069965658848 1843.8344543955473 2642.47732726666 1910.6576781198737L587.0226448713543 3097.373047551643C471.2929755721284 3164.177569002328 328.70684132240285 3164.177569002328 212.977172023177 3097.3543452780004L-1842.477510372128 1910.638975846231C-1958.207179671354 1843.8344543955473 -2029.5002467962167 1720.3433415347208 -2029.5002467962167 1586.7155963597088V-786.7151425038303C-2029.5002467962167 -920.3428876788425 -1958.207179671354 -1043.8340005396685 -1842.477510372128 -1110.657224263995L212.977172023177 -2297.3725936957653Z " transform="rotate(322.5, 400, 400)" opacity="0.26"></path><path d="M217.3265379865279 -2234.6431851475622C330.3648196276322 -2299.894113076138 469.63499726689906 -2299.894113076138 582.6732789080033 -2234.6249178105163L2590.3266896196965 -1075.507580225997C2703.364971260801 -1010.2566522974212 2773.000060080435 -889.637425782196 2773.000060080435 -759.117302587998V1559.1173725810409C2773.000060080435 1689.6374957752387 2703.364971260801 1810.2567222904636 2590.3266896196965 1875.525917556085L582.6732789080033 3034.643255140604C469.63499726689906 3099.89418306918 330.3648196276322 3099.89418306918 217.3265379865279 3034.6249878035587L-1790.3268727251652 1875.5076502190395C-1903.3651543662697 1810.2567222904636 -1973.0002431859032 1689.6374957752387 -1973.0002431859032 1559.1173725810409V-759.117302587998C-1973.0002431859032 -889.637425782196 -1903.3651543662697 -1010.2566522974212 -1790.3268727251652 -1075.5258475630426L217.3265379865279 -2234.6431851475622Z " transform="rotate(315, 400, 400)" opacity="0.28"></path><path d="M221.67590394987883 -2171.9135477175237C332.0227979328615 -2235.6108821239905 467.9770189616697 -2235.6108821239905 578.3239129446524 -2171.895715317074L2538.176051972734 -1040.376409579805C2648.5229459557168 -976.6790751733383 2716.5000564701213 -858.9317350037136 2716.5000564701213 -731.51923379033V1531.5193776842075C2716.5000564701213 1658.9318788975907 2648.5229459557168 1776.6792190672159 2538.176051972734 1840.3943858741313L578.3239129446524 2971.913691611401C467.9770189616697 3035.6110260178675 332.0227979328615 3035.6110260178675 221.67590394987883 2971.895859210951L-1738.1762350782028 1840.376553473683C-1848.5231290611855 1776.6792190672159 -1916.5002395755896 1658.9318788975907 -1916.5002395755896 1531.5193776842075V-731.51923379033C-1916.5002395755896 -858.9317350037136 -1848.5231290611855 -976.6790751733383 -1738.1762350782028 -1040.3942419802545L221.67590394987883 -2171.9135477175237Z " transform="rotate(307.5, 400, 400)" opacity="0.30"></path><path d="M226.02526991322975 -2109.183925546274C333.68077623809086 -2171.327666430632 466.3190406564404 -2171.327666430632 573.9745469813015 -2109.1665280824204L2486.0254143257716 -1005.2452541924022C2593.6809206506323 -943.1015133080446 2660.0000528598075 -828.2260594840204 2660.0000528598075 -703.921180251451V1503.921367528586C2660.0000528598075 1628.2262467611554 2593.6809206506323 1743.101700585179 2486.0254143257716 1805.2628389333895L573.9745469813015 2909.184112823408C466.3190406564404 2971.3278537077667 333.68077623809086 2971.3278537077667 226.02526991322975 2909.1667153595554L-1686.02559743124 1805.2454414695367C-1793.6811037561013 1743.101700585179 -1860.000235965276 1628.2262467611554 -1860.000235965276 1503.921367528586V-703.921180251451C-1860.000235965276 -828.2260594840204 -1793.6811037561013 -943.1015133080446 -1686.02559743124 -1005.2626516562552L226.02526991322975 -2109.183925546274Z " transform="rotate(300, 400, 400)" opacity="0.31"></path><path d="M230.37463587658021 -2046.4542881162354C335.3387545433202 -2107.044435478484 464.66106235121106 -2107.044435478484 569.6251810179506 -2046.4373255889782L2433.874776678809 -970.1140835462104C2538.838895345548 -909.5239361839617 2603.5000492494937 -797.520368705538 2603.5000492494937 -676.323111453783V1476.3233726317526C2603.5000492494937 1597.5206298835074 2538.838895345548 1709.5241973619318 2433.874776678809 1770.1313072514367L569.6251810179506 2846.454549294205C464.66106235121106 2907.044696656453 335.3387545433202 2907.044696656453 230.37463587658021 2846.437586766948L-1633.8749597842775 1770.1143447241793C-1738.839078451017 1709.5241973619318 -1803.5002323549625 1597.5206298835074 -1803.5002323549625 1476.3233726317526V-676.323111453783C-1803.5002323549625 -797.520368705538 -1738.839078451017 -909.5239361839617 -1633.8749597842775 -970.1310460734671L230.37463587658021 -2046.4542881162354Z " transform="rotate(292.5, 400, 400)" opacity="0.33"></path><path d="M234.72397132235346 -1983.7246506861966C336.99670233097186 -2042.7612045263365 463.00305352840314 -2042.7612045263365 565.2757845370215 -1983.708123095536L2381.7241085142678 -934.9829129000184C2483.996839522886 -875.9463590598784 2547.0000151216027 -766.8146779270555 2547.0000151216027 -648.7250426561147V1448.7253777349201C2547.0000151216027 1566.8150130058616 2483.996839522886 1675.9466941386845 2381.7241085142678 1734.9997755694844L565.2757845370215 2783.724985765002C463.00305352840314 2842.7615396051424 336.99670233097186 2842.7615396051424 234.72397132235346 2783.708458174342L-1581.7243526548928 1734.9832479788238C-1683.9970836635111 1675.9466941386845 -1747.0002592622272 1566.8150130058616 -1747.0002592622272 1448.7253777349201V-648.7250426561147C-1747.0002592622272 -766.8146779270555 -1683.9970836635111 -875.9463590598784 -1581.7243526548928 -934.9994404906788L234.72397132235346 -1983.7246506861966Z " transform="rotate(285, 400, 400)" opacity="0.35"></path><path d="M239.07333728570393 -1920.995257396783C338.65468063620074 -1978.4782177148138 461.34507522317426 -1978.4782177148138 560.9264185736706 -1920.9791647427185L2329.5734708673044 -899.8519863944516C2429.1548142178026 -842.3690260764206 2490.500011511289 -736.1092312891983 2490.500011511289 -621.1272179990717V1421.1271386974622C2490.500011511289 1536.109151987589 2429.1548142178026 1642.3689467748118 2329.5734708673044 1699.8679997469067L560.9264185736706 2720.9951780951733C461.34507522317426 2778.4781384132048 338.65468063620074 2778.4781384132048 239.07333728570393 2720.9790854411094L-1529.5737150079303 1699.8519070928423C-1629.155058358427 1642.3689467748118 -1690.5002556519134 1536.109151987589 -1690.5002556519134 1421.1271386974622V-621.1272179990717C-1690.5002556519134 -736.1092312891983 -1629.155058358427 -842.3690260764206 -1529.5737150079303 -899.8680790485155L239.07333728570393 -1920.995257396783Z " transform="rotate(277.5, 400, 400)" opacity="0.37"></path><path d="M243.4228253193678 -1858.2653758261195C340.3127810117426 -1914.1947426220413 459.687218988257 -1914.1947426220413 556.5771746806327 -1858.2497181086512L2277.4229552906545 -864.7205716076346C2374.3129109830297 -808.7912048117128 2434.0001299712876 -705.4032963700911 2434.0001299712876 -593.5289050607785V1393.5293879412543C2434.0001299712876 1505.403779250567 2374.3129109830297 1608.7916876921886 2277.4229552906545 1664.7367122055784L556.5771746806327 2658.2658587065953C459.687218988257 2714.195225502517 340.3127810117426 2714.195225502517 243.4228253193678 2658.250200989127L-1477.422955290655 1664.7210544881104C-1574.3129109830302 1608.7916876921886 -1634.0001299712876 1505.403779250567 -1634.0001299712876 1393.5293879412543V-593.5289050607785C-1634.0001299712876 -705.4032963700911 -1574.3129109830302 -808.7912048117128 -1477.422955290655 -864.7362293251024L243.4228253193678 -1858.2653758261195Z " transform="rotate(270, 400, 400)" opacity="0.38"></path><path d="M247.77219128271827 -1795.5359825367057C341.97075931697236 -1849.9117558105186 458.0292406830281 -1849.9117558105186 552.2278087172817 -1795.5207597558338L2225.272317643692 -829.5896451020676C2319.470885677946 -775.2138718282547 2377.500126360974 -674.6978497322334 2377.500126360974 -565.9310804037352V1365.9311489037973C2377.500126360974 1474.6979182322953 2319.470885677946 1575.2139403283163 2225.272317643692 1629.6049363830007L552.2278087172817 2595.5360510367673C458.0292406830281 2649.9118243105804 341.97075931697236 2649.9118243105804 247.77219128271827 2595.520828255896L-1425.2723176436925 1629.5897136021295C-1519.4708856779462 1575.2139403283163 -1577.500126360974 1474.6979182322953 -1577.500126360974 1365.9311489037973V-565.9310804037352C-1577.500126360974 -674.6978497322334 -1519.4708856779462 -775.2138718282547 -1425.2723176436925 -829.6048678829391L247.77219128271827 -1795.5359825367057Z " transform="rotate(262.5, 400, 400)" opacity="0.40"></path><path d="M252.12155724606941 -1732.806360365456C343.6287376222017 -1785.6285401171601 456.3712623777983 -1785.6285401171601 547.8784427539308 -1732.7915725211806L2173.1216799967297 -794.4584897146651C2264.6288603728617 -741.6363099629609 2321.00012275066 -643.9921742125402 2321.00012275066 -538.3330268648563V1338.3331387481749C2321.00012275066 1443.992286095859 2264.6288603728617 1541.6364218462795 2173.1216799967297 1594.4733894422588L547.8784427539308 2532.8064722487743C456.3712623777983 2585.6286520004787 343.6287376222017 2585.6286520004787 252.12155724606941 2532.7916844044994L-1373.1216799967297 1594.4586015979835C-1464.628860372862 1541.6364218462795 -1521.0001227506605 1443.992286095859 -1521.0001227506605 1338.3331387481749V-538.3330268648563C-1521.0001227506605 -643.9921742125402 -1464.628860372862 -741.6363099629609 -1373.1216799967297 -794.47327755894L252.12155724606941 -1732.806360365456Z " transform="rotate(255, 400, 400)" opacity="0.42"></path><path d="M256.47092320942033 -1670.0767229354174C345.28671592743103 -1721.3453091650124 454.71328407256897 -1721.3453091650124 543.5290767905799 -1670.0623700277383L2120.971042349767 -759.3273190684731C2209.7868350677777 -708.0587328388779 2264.5001191403467 -613.286483434058 2264.5001191403467 -510.73495806718824V1310.735143851342C2264.5001191403467 1413.2866692182115 2209.7868350677777 1508.0589186230318 2120.971042349767 1559.3418577603056L543.5290767905799 2470.0769087195704C454.71328407256897 2521.345494949166 345.28671592743103 2521.345494949166 256.47092320942033 2470.062555811892L-1320.9710423497672 1559.3275048526266C-1409.7868350677777 1508.0589186230318 -1464.500119140347 1413.2866692182115 -1464.500119140347 1310.735143851342V-510.73495806718824C-1464.500119140347 -613.286483434058 -1409.7868350677777 -708.0587328388779 -1320.9710423497672 -759.3416719761517L256.47092320942033 -1670.0767229354174Z " transform="rotate(247.5, 400, 400)" opacity="0.44"></path><path d="M260.82028917277125 -1607.347207575691C346.94469423266014 -1657.0622002831774 453.05530576733963 -1657.0622002831774 539.1797108272285 -1607.3332896046084L2068.8204047028044 -724.1962704925936C2154.9448097626932 -674.4812777851075 2208.0001155300333 -582.5809147258881 2208.0001155300333 -483.1370113398327V1283.137026884197C2208.0001155300333 1382.5809302702523 2154.9448097626932 1474.4812933294716 2068.8204047028044 1524.2102040080404L539.1797108272285 2407.347223120055C453.05530576733963 2457.062215827541 346.94469423266014 2457.062215827541 260.82028917277125 2407.3333051489726L-1268.8204047028046 1524.196286036958C-1354.9448097626937 1474.4812933294716 -1408.0001155300333 1382.5809302702523 -1408.0001155300333 1283.137026884197V-483.1370113398327C-1408.0001155300333 -582.5809147258881 -1354.9448097626937 -674.4812777851075 -1268.8204047028046 -724.2101884636759L260.82028917277125 -1607.347207575691Z " transform="rotate(240, 400, 400)" opacity="0.45"></path><path d="M265.1696551361222 -1544.6175701456525C348.6026725378895 -1592.7789693310297 451.3973274621103 -1592.7789693310297 534.830344863878 -1544.6040871111659L2016.6697670558415 -689.0650998464018C2100.1027844576092 -640.9037006610245 2151.5001119197195 -551.8752239474059 2151.5001119197195 -455.5389425421645V1255.539031987364C2151.5001119197195 1351.8753133926052 2100.1027844576092 1440.9037901062238 2016.6697670558415 1489.0786723260871L534.830344863878 2344.617659590851C451.3973274621103 2392.7790587762283 348.6026725378895 2392.7790587762283 265.1696551361222 2344.604176556366L-1216.669767055842 1489.0651892916012C-1300.1027844576095 1440.9037901062238 -1351.5001119197198 1351.8753133926052 -1351.5001119197198 1255.539031987364V-455.5389425421645C-1351.5001119197198 -551.8752239474059 -1300.1027844576095 -640.9037006610245 -1216.669767055842 -689.078582880888L265.1696551361222 -1544.6175701456525Z " transform="rotate(232.5, 400, 400)" opacity="0.47"></path><path d="M269.51902109947287 -1481.8880547859262C350.2606508431188 -1528.4958604491944 449.7393491568812 -1528.4958604491944 530.4809789005271 -1481.8750066880361L1964.519129408879 -653.9340512705223C2045.2607591525252 -607.3262456072541 2095.000108309406 -521.1696552392359 2095.000108309406 -427.94099581480896V1227.9409150202187C2095.000108309406 1321.1695744446456 2045.2607591525252 1407.326164812664 1964.519129408879 1453.9470185738219L530.4809789005271 2281.8879739913355C449.7393491568812 2328.495779654604 350.2606508431188 2328.495779654604 269.51902109947287 2281.874925893446L-1164.5191294088793 1453.9339704759318C-1245.2607591525252 1407.326164812664 -1295.0001083094062 1321.1695744446456 -1295.0001083094062 1227.9409150202187V-427.94099581480896C-1295.0001083094062 -521.1696552392359 -1245.2607591525252 -607.3262456072541 -1164.5191294088793 -653.9470993684122L269.51902109947287 -1481.8880547859262Z " transform="rotate(225, 400, 400)" opacity="0.49"></path><path d="M273.86835654524566 -1419.1584326146767C351.91859863077 -1464.212644755836 448.08134033407373 -1464.212644755836 526.1315824195981 -1419.145819453383L1912.368461244338 -618.8028958831196C1990.418703329863 -573.7486837419601 2038.5000741815143 -490.46397971954275 2038.5000741815143 -400.34294227593V1200.3429048645967C2038.5000741815143 1290.4639423082094 1990.418703329863 1373.7486463306268 1912.368461244338 1418.8154716330796L526.1315824195981 2219.158395203343C448.08134033407373 2264.2126073445024 351.91859863077 2264.2126073445024 273.86835654524566 2219.1457820420496L-1112.3685222794948 1418.8028584717863C-1190.4187643650191 1373.7486463306268 -1238.500135216671 1290.4639423082094 -1238.500135216671 1200.3429048645967V-400.34294227593C-1238.500135216671 -490.46397971954275 -1190.4187643650191 -573.7486837419601 -1112.3685222794948 -618.8155090444129L273.86835654524566 -1419.1584326146767Z " transform="rotate(217.5, 400, 400)" opacity="0.51"></path><path d="M278.2177225085966 -1356.428795184638C353.57657693599936 -1399.9294138036882 446.4233620288444 -1399.9294138036882 521.7822164562472 -1356.4166169599405L1860.2178235973756 -583.6717252369276C1935.576678024779 -540.1711066178773 1982.000070571201 -459.7582889410601 1982.000070571201 -372.7448734782615V1172.7449099677642C1982.000070571201 1259.7583254305623 1935.576678024779 1340.1711431073795 1860.2178235973756 1383.6839399511273L521.7822164562472 2156.42883167414C446.4233620288444 2199.9294502931903 353.57657693599936 2199.9294502931903 278.2177225085966 2156.416653449443L-1060.217884632532 1383.6717617264298C-1135.5767390599349 1340.1711431073795 -1182.0001316063572 1259.7583254305623 -1182.0001316063572 1172.7449099677642V-372.7448734782615C-1182.0001316063572 -459.7582889410601 -1135.5767390599349 -540.1711066178773 -1060.217884632532 -583.6839034616246L278.2177225085966 -1356.428795184638Z " transform="rotate(210, 400, 400)" opacity="0.53"></path><path d="M282.5670884719475 -1293.6991577545991C355.2345552412289 -1335.6461828515407 444.76538372361483 -1335.6461828515407 517.4328504928963 -1293.687414466498L1808.0671859504132 -548.5405545907358C1880.7346527196946 -506.59352949379445 1925.5000669608871 -429.05259816257785 1925.5000669608871 -345.14680468059396V1145.1469150709313C1925.5000669608871 1229.0527085529156 1880.7346527196946 1306.5936398841313 1808.0671859504132 1348.5524082691736L517.4328504928963 2093.6992681449365C444.76538372361483 2135.6462932418776 355.2345552412289 2135.6462932418776 282.5670884719475 2093.687524856836L-1008.0672469855695 1348.540664981073C-1080.7347137548509 1306.5936398841313 -1125.5001279960438 1229.0527085529156 -1125.5001279960438 1145.1469150709313V-345.14680468059396C-1125.5001279960438 -429.05259816257785 -1080.7347137548509 -506.59352949379445 -1008.0672469855695 -548.5522978788365L282.5670884719475 -1293.6991577545991Z " transform="rotate(202.5, 400, 400)" opacity="0.54"></path><path d="M286.9164544352984 -1230.969642394873C356.89253354645825 -1271.3630739697055 443.1074054183855 -1271.3630739697055 513.0834845295453 -1230.9583340433683L1755.9165483034503 -513.4095060148563C1825.8926274146106 -473.0160744400239 1869.0000633505738 -398.34702945440813 1869.0000633505738 -317.548857953238V1117.5487981037859C1869.0000633505738 1198.3469696049556 1825.8926274146106 1273.016014590572 1755.9165483034503 1313.4207545169088L513.0834845295453 2030.9695825454205C443.1074054183855 2071.363014120253 356.89253354645825 2071.363014120253 286.9164544352984 2030.9582741939162L-955.9166093386068 1313.409446165404C-1025.8926884497666 1273.016014590572 -1069.0001243857303 1198.3469696049556 -1069.0001243857303 1117.5487981037859V-317.548857953238C-1069.0001243857303 -398.34702945440813 -1025.8926884497666 -473.0160744400239 -955.9166093386068 -513.4208143663608L286.9164544352984 -1230.969642394873Z " transform="rotate(195, 400, 400)" opacity="0.56"></path><path d="M291.26582039864934 -1168.2400049648345C358.5505118516876 -1207.079843017558 441.44942711315616 -1207.079843017558 508.7341185661944 -1168.229131549926L1703.765910656488 -478.27833536866444C1771.0506021095262 -439.43849731594094 1812.5000597402604 -367.6413386759259 1812.5000597402604 -289.95078915556996V1089.950803206953C1812.5000597402604 1167.641352727309 1771.0506021095262 1239.4385113673238 1703.765910656488 1278.2892228349556L508.7341185661944 1968.240019016217C441.44942711315616 2007.0798570689403 358.5505118516876 2007.0798570689403 291.26582039864934 1968.2291456013086L-903.7659716916442 1278.2783494200476C-971.0506631446824 1239.4385113673238 -1012.5001207754167 1167.641352727309 -1012.5001207754167 1089.950803206953V-289.95078915556996C-1012.5001207754167 -367.6413386759259 -971.0506631446824 -439.43849731594094 -903.7659716916442 -478.2892087835726L291.26582039864934 -1168.2400049648345Z " transform="rotate(187.5, 400, 400)" opacity="0.58"></path><path d="M295.61518636200026 -1105.5104896051082C360.20849015691715 -1142.7967341357228 439.7914488079266 -1142.7967341357228 504.3847526028435 -1105.500051126796L1651.6152730095255 -443.14728679278517C1716.2085768044421 -405.8610422621705 1756.000056129947 -336.93576996775596 1756.000056129947 -262.35284242821444V1062.352686239808C1756.000056129947 1136.9356137793493 1716.2085768044421 1205.8608860737636 1651.6152730095255 1243.1575690826903L504.3847526028435 1905.5103334167015C439.7914488079266 1942.7965779473157 360.20849015691715 1942.7965779473157 295.61518636200026 1905.4998949383894L-851.6153340446815 1243.1471306043786C-916.2086378395983 1205.8608860737636 -956.0001171651031 1136.9356137793493 -956.0001171651031 1062.352686239808V-262.35284242821444C-956.0001171651031 -336.93576996775596 -916.2086378395983 -405.8610422621705 -851.6153340446815 -443.15772527109687L295.61518636200026 -1105.5104896051082Z " transform="rotate(180, 400, 400)" opacity="0.60"></path><path d="M299.9645523253512 -1042.7808674338585C361.8664684621465 -1078.5135184423643 438.13347050269726 -1078.5135184423643 500.0353866394926 -1042.7708638921429L1599.4646353625626 -408.0161314053822C1661.3665514993581 -372.2834803968765 1699.5000525196338 -306.2300944480627 1699.5000525196338 -234.75478888933526V1034.754676084186C1699.5000525196338 1106.2299816429136 1661.3665514993581 1172.2833675917273 1599.4646353625626 1208.0260221419485L500.0353866394926 1842.780754628709C438.13347050269726 1878.5134056372149 361.8664684621465 1878.5134056372149 299.9645523253512 1842.7707510869936L-799.4646963977189 1208.016018600233C-861.3666125345142 1172.2833675917273 -899.5001135547896 1106.2299816429136 -899.5001135547896 1034.754676084186V-234.75478888933526C-899.5001135547896 -306.2300944480627 -861.3666125345142 -372.2834803968765 -799.4646963977189 -408.0261349470977L299.9645523253512 -1042.7808674338585Z " transform="rotate(172.5, 400, 400)" opacity="0.61"></path><path d="M304.3139182887021 -980.0512300038199C363.5244467673758 -1014.2302874902166 436.47549219746793 -1014.2302874902166 495.68602067614165 -980.0416613987004L1547.3139977156002 -372.88496075919034C1606.5245261942737 -338.70590327279365 1643.00004890932 -275.52440366958035 1643.00004890932 -207.156720091667V1007.1566811873527C1643.00004890932 1075.5243647652665 1606.5245261942737 1138.7058643684795 1547.3139977156002 1172.8944904599953L495.68602067614165 1780.0511910995056C436.47549219746793 1814.2302485859018 363.5244467673758 1814.2302485859018 304.3139182887021 1780.0416224943865L-747.3140587507562 1172.8849218548762C-806.5245872294299 1138.7058643684795 -843.000109944476 1075.5243647652665 -843.000109944476 1007.1566811873527V-207.156720091667C-843.000109944476 -275.52440366958035 -806.5245872294299 -338.70590327279365 -747.3140587507562 -372.8945293643095L304.3139182887021 -980.0512300038199Z " transform="rotate(165, 400, 400)" opacity="0.63"></path><path d="M308.6632537344749 -917.3217299028827C365.18239455502703 -949.9471938671705 434.81748337466047 -949.9471938671705 491.3366241952126 -917.3125962343597L1495.1633295510592 -337.7539274421C1551.6824703716115 -305.12846347781215 1586.5000147814285 -244.81885022019958 1586.5000147814285 -179.55878862310055V979.5585489614186C1586.5000147814285 1044.8186105585178 1551.6824703716115 1105.1282238161302 1495.1633295510592 1137.762821448941L491.3366241952126 1717.3214902412005C434.81748337466047 1749.9469542054885 365.18239455502703 1749.9469542054885 308.6632537344749 1717.3123565726778L-695.1634516213717 1137.7536877804182C-751.6825924419238 1105.1282238161302 -786.5001368517406 1044.8186105585178 -786.5001368517406 979.5585489614186V-179.55878862310055C-786.5001368517406 -244.81885022019958 -751.6825924419238 -305.12846347781215 -695.1634516213717 -337.76306111062286L308.6632537344749 -917.3217299028827Z " transform="rotate(157.5, 400, 400)" opacity="0.65"></path><path d="M313.0126196978258 -854.5920924728441C366.84037286025637 -885.6639629150229 433.15950506943113 -885.6639629150229 486.9872582318617 -854.5833937409172L1443.0126919040968 -302.6227567959081C1496.840445066527 -271.5508863537293 1530.0000111711147 -214.11315944171724 1530.0000111711147 -151.96071982543253V951.9605540645862C1530.0000111711147 1014.1129936808707 1496.840445066527 1071.5507205928825 1443.0126919040968 1102.6312897669877L486.9872582318617 1654.591926711997C433.15950506943113 1685.6637971541763 366.84037286025637 1685.6637971541763 313.0126196978258 1654.5832279800707L-643.012813974409 1102.6225910350613C-696.8405671368397 1071.5507205928825 -730.0001332414271 1014.1129936808707 -730.0001332414271 951.9605540645862V-151.96071982543253C-730.0001332414271 -214.11315944171724 -696.8405671368397 -271.5508863537293 -643.012813974409 -302.63145552783465L313.0126196978258 -854.5920924728441Z " transform="rotate(150, 400, 400)" opacity="0.67"></path><path d="M317.36198566117673 -791.8624397840163C368.49835116548593 -821.3807167040862 431.50152676420157 -821.3807167040862 482.63789226851077 -791.8541759886859L1390.8620542571339 -267.49157089092716C1441.998419761443 -237.97329397085718 1473.5000075608014 -183.40745340444573 1473.5000075608014 -124.36263576897534V924.3625744265421C1473.5000075608014 983.4073920620131 1441.998419761443 1037.9732326284243 1390.8620542571339 1067.499773343824L482.63789226851077 1591.8623784415831C431.50152676420157 1621.3806553616532 368.49835116548593 1621.3806553616532 317.36198566117673 1591.854114646253L-590.8621763274464 1067.491509548494C-641.9985418317556 1037.9732326284243 -673.5001296311136 983.4073920620131 -673.5001296311136 924.3625744265421V-124.36263576897534C-673.5001296311136 -183.40745340444573 -641.9985418317556 -237.97329397085718 -590.8621763274464 -267.4998346862574L317.36198566117673 -791.8624397840163Z " transform="rotate(142.5, 400, 400)" opacity="0.68"></path><path d="M321.71135162452765 -729.1328176127668C370.15632947071504 -757.0975010107277 429.84354845897224 -757.0975010107277 478.2885263051601 -729.1249887540326L1338.711416610171 -232.36041550352434C1387.1563944563586 -204.3957321055634 1417.0000039504876 -152.70177788475257 1417.0000039504876 -96.76458223009627V896.7645642709201C1417.0000039504876 952.7017599255764 1387.1563944563586 1004.3957141463873 1338.711416610171 1032.3682264030822L478.2885263051601 1529.1327996535906C429.84354845897224 1557.0974830515515 370.15632947071504 1557.0974830515515 321.71135162452765 1529.1249707948564L-538.7115386804837 1032.3603975443482C-587.1565165266713 1004.3957141463873 -617.0001260208 952.7017599255764 -617.0001260208 896.7645642709201V-96.76458223009627C-617.0001260208 -152.70177788475257 -587.1565165266713 -204.3957321055634 -538.7115386804837 -232.36824436225822L321.71135162452765 -729.1328176127668Z " transform="rotate(135, 400, 400)" opacity="0.70"></path><path d="M326.06071758787857 -666.403180182728C371.8143077759446 -692.8142700585801 428.1855701537429 -692.8142700585801 473.93916034180916 -666.3957862605903L1286.5607789632086 -197.22924485733256C1332.3143691512746 -170.81815498148046 1360.5000003401738 -121.99608710627012 1360.5000003401738 -69.16651343242813V869.1665693740874C1360.5000003401738 921.9961430479295 1332.3143691512746 970.8182109231398 1286.5607789632086 997.2366947211294L473.93916034180916 1466.4032361243871C428.1855701537429 1492.8143260002394 371.8143077759446 1492.8143260002394 326.06071758787857 1466.3958422022497L-486.56090103352113 997.2293007989917C-532.3144912215872 970.8182109231398 -560.5001224104865 921.9961430479295 -560.5001224104865 869.1665693740874V-69.16651343242813C-560.5001224104865 -121.99608710627012 -532.3144912215872 -170.81815498148046 -486.56090103352113 -197.23663877947L326.06071758787857 -666.403180182728Z " transform="rotate(127.5, 400, 400)" opacity="0.72"></path><path d="M330.410205621542 -603.6736037878455C373.47240815148643 -628.5311001415887 426.52771391882607 -628.5311001415887 469.5899164487705 -603.6666448023042L1234.4102633865584 -162.0981352462968C1277.472465916503 -137.24063889255376 1304.000118800173 -91.29045736294404 1304.000118800173 -41.56850566991636V841.5685134420985C1304.000118800173 891.2904651351262 1277.472465916503 937.2406466647358 1234.4102633865584 962.1051020040202L469.5899164487705 1403.6736115600274C426.52771391882607 1428.5311079137705 373.47240815148643 1428.5311079137705 330.410205621542 1403.6666525744863L-434.41014131624604 962.098143018479C-477.47234384619054 937.2406466647358 -503.9999967298604 891.2904651351262 -503.9999967298604 841.5685134420985V-41.56850566991636C-503.9999967298604 -91.29045736294404 -477.47234384619054 -137.24063889255376 -434.41014131624604 -162.10509423183794L330.410205621542 -603.6736037878455Z " transform="rotate(120, 400, 400)" opacity="0.74"></path><path d="M334.75951054973643 -540.9439663578069C375.1303254215595 -564.247869189441 424.8696745784405 -564.247869189441 465.24048945026357 -540.9374423088618L1182.2595647044395 -126.96696460010492C1222.6303795762626 -103.66306176847081 1247.500054154703 -60.584766584461704 1247.500054154703 -13.970436872248229V813.9705185452656C1247.500054154703 860.584848257479 1222.6303795762626 903.6631434414883 1182.2595647044395 926.9735703220672L465.24048945026357 1340.944048030824C424.8696745784405 1364.2479508624583 375.1303254215595 1364.2479508624583 334.75951054973643 1340.9375239818792L-382.25956470443964 926.9670462731222C-422.6303795762626 903.6631434414883 -447.50005415470315 860.584848257479 -447.50005415470315 813.9705185452656V-13.970436872248229C-447.50005415470315 -60.584766584461704 -422.6303795762626 -103.66306176847081 -382.25956470443964 -126.97348864904984L334.75951054973643 -540.9439663578069Z " transform="rotate(112.5, 400, 400)" opacity="0.75"></path><path d="M339.10887651308735 -478.21438996292443C376.78830372678885 -499.96469927244965 423.21169627321115 -499.96469927244965 460.89112348691265 -478.2083008505757L1130.1089270574769 -91.83585498906928C1167.7883542711786 -70.08554567954411 1191.0000505443895 -29.879136841135505 1191.0000505443895 13.627570890263769V786.3724626132766C1191.0000505443895 829.8791703446757 1167.7883542711786 870.0855791830843 1130.1089270574769 891.8419776049582L460.89112348691265 1278.2144234664645C423.21169627321115 1299.9647327759897 376.78830372678885 1299.9647327759897 339.10887651308735 1278.208334354116L-330.108927057477 891.8358884926095C-367.78835427117843 870.0855791830843 -391.0000505443896 829.8791703446757 -391.0000505443896 786.3724626132766V13.627570890263769C-391.0000505443896 -29.879136841135505 -367.78835427117843 -70.08554567954411 -330.108927057477 -91.84194410141777L339.10887651308735 -478.21438996292443Z " transform="rotate(105, 400, 400)" opacity="0.77"></path><path d="M343.4582424764383 -415.48475253288575C378.4462820320182 -435.681468320302 421.5537179679818 -435.681468320302 456.5417575235617 -415.47909835713335L1077.9582894105142 -56.704684342877385C1112.9463289660944 -36.50796855546116 1134.500046934076 0.8265539373467163 1134.500046934076 41.22563968793179V758.7744677164437C1134.500046934076 799.1735534670286 1112.9463289660944 836.5080759598368 1077.9582894105142 856.7104459230052L456.5417575235617 1215.484859937261C421.5537179679818 1235.6815757246773 378.4462820320182 1235.6815757246773 343.4582424764383 1215.4792057615089L-277.95828941051434 856.7047917472528C-312.94632896609426 836.5080759598368 -334.50004693407607 799.1735534670286 -334.50004693407607 758.7744677164437V41.22563968793179C-334.50004693407607 0.8265539373467163 -312.94632896609426 -36.50796855546116 -277.95828941051434 -56.71033851862967L343.4582424764383 -415.48475253288575Z " transform="rotate(97.5, 400, 400)" opacity="0.79"></path><path d="M347.80757792221107 -352.7551761380033C380.1042298196695 -371.3982984033106 419.89570914517424 -371.3982984033106 452.1923610426327 -352.74995689884724L1025.8076212459737 -21.573574731841745C1058.104273143432 -2.9304524665344616 1078.0000128061845 31.5321836806728 1078.0000128061845 68.82364745044356V731.1764117844548C1078.0000128061845 768.4678755542254 1058.104273143432 802.9305117014326 1025.8076212459737 821.5788532058959L452.1923610426327 1152.7552353729016C419.89570914517424 1171.3983576382086 380.1042298196695 1171.3983576382086 347.80757792221107 1152.7500161337455L-225.80768228112981 821.5736339667401C-258.1043341785882 802.9305117014326 -278.0000738413406 768.4678755542254 -278.0000738413406 731.1764117844548V68.82364745044356C-278.0000738413406 31.5321836806728 -258.1043341785882 -2.9304524665344616 -225.80768228112981 -21.578793970997594L347.80757792221107 -352.7551761380033Z " transform="rotate(90, 400, 400)" opacity="0.81"></path><path d="M352.156943885562 -290.02561500190996C381.76220812489885 -307.1151437451083 418.2377308399449 -307.1151437451083 447.84299507928176 -290.02083069935026L973.656983599011 13.557519620404832C1003.2622478383478 30.647048363603176 1021.5000091958709 62.237798165209824 1021.5000091958709 96.4216399541665V703.5783405936763C1021.5000091958709 737.7621823826332 1003.2622478383478 769.3529321842398 973.656983599011 786.4472452299976L447.84299507928176 1090.0255955497528C418.2377308399449 1107.115124292951 381.76220812489885 1107.115124292951 352.156943885562 1090.0208112471933L-173.65704463416716 786.4424609274381C-203.26230887350403 769.3529321842398 -221.5000702310271 737.7621823826332 -221.5000702310271 703.5783405936763V96.4216399541665C-221.5000702310271 62.237798165209824 -203.26230887350403 30.647048363603176 -173.65704463416716 13.55273531784519L352.156943885562 -290.02561500190996Z " transform="rotate(82.5, 400, 400)" opacity="0.82"></path><path d="M356.5063098489129 -227.29597757187128C383.4201864301282 -242.83191279296068 416.57975253471557 -242.83191279296068 443.49362911593084 -227.2916282059079L921.5063459520484 48.68869026659672C948.4202225332635 64.22462548768613 965.0000055855573 92.94348894369216 965.0000055855573 124.01970875183451V675.9803456968439C965.0000055855573 707.0565655049861 948.4202225332635 735.775428960992 921.5063459520484 751.3157135480446L443.49362911593084 1027.2960320205493C416.57975253471557 1042.831967241639 383.4201864301282 1042.831967241639 356.5063098489129 1027.291682654586L-121.50640698720451 751.3113641820814C-148.42028356841985 735.775428960992 -165.00006662071354 707.0565655049861 -165.00006662071354 675.9803456968439V124.01970875183451C-165.00006662071354 92.94348894369216 -148.42028356841985 64.22462548768613 -121.50640698720451 48.684340900633515L356.5063098489129 -227.29597757187128Z " transform="rotate(75, 400, 400)" opacity="0.84"></path><path d="M360.8556758122638 -164.56641643577785C385.0781647353575 -178.54875813475837 414.9217742294861 -178.54875813475837 439.14426315258004 -164.56250200641085L869.3557083050855 83.8197846188433C893.5781972281793 97.80212631782376 908.5000019752438 123.64910342822918 908.5000019752438 151.61770125555734V648.3822745060656C908.5000019752438 676.3508723333937 893.5781972281793 702.197849443799 869.3557083050855 716.1841055721466L439.14426315258004 964.5663921974008C414.9217742294861 978.5487338963812 385.0781647353575 978.5487338963812 360.8556758122638 964.5624777680337L-69.35576934024192 716.1801911427797C-93.57825826333567 702.197849443799 -108.50006301040003 676.3508723333937 -108.50006301040003 648.3822745060656V151.61770125555734C-108.50006301040003 123.64910342822918 -93.57825826333567 97.80212631782376 -69.35576934024192 83.81587018947636L360.8556758122638 -164.56641643577785Z " transform="rotate(67.5, 400, 400)" opacity="0.86"></path><path d="M365.20504177561475 -101.83676374695011C386.73614304058697 -114.26551192382166 413.2637959242568 -114.26551192382166 434.794897189229 -101.83328425417943L817.2050706581231 118.95097052382425C838.7361719230953 131.37971870069578 851.9999983649302 154.3548094655007 851.9999983649302 179.21578531201453V620.7842948680219C851.9999983649302 645.6452707145357 838.7361719230953 668.6203614793405 817.2050706581231 681.0525891489829L434.794897189229 901.8368439269864C413.2637959242568 914.2655921038579 386.73614304058697 914.2655921038579 365.20504177561475 901.8333644342158L-17.20513169327927 681.0491096562123C-38.73623295825149 668.6203614793405 -52.00005940008646 645.6452707145357 -52.00005940008646 620.7842948680219V179.21578531201453C-52.00005940008646 154.3548094655007 -38.73623295825149 131.37971870069578 -17.20513169327927 118.94749103105369L365.20504177561475 -101.83676374695011Z " transform="rotate(60, 400, 400)" opacity="0.88"></path><path d="M369.55440773896555 -39.107202610856746C388.3941213458163 -49.982357265619356 411.60581761902745 -49.982357265619356 430.4455312258782 -39.10415805468239L765.0544330111602 154.08206487607083C783.8941466180113 164.9572195308334 795.4999947546166 185.06042395003772 795.4999947546166 206.81377781573735V593.1862236772438C795.4999947546166 614.9395775429433 783.8941466180113 635.0427819621476 765.0544330111602 645.9209811730846L430.4455312258782 839.1072041038378C411.60581761902745 849.9823587586002 388.3941213458163 849.9823587586002 369.55440773896555 839.1041595476636L34.94550595368338 645.9179366169102C16.105792346832686 635.0427819621476 4.499944210227056 614.9395775429433 4.499944210227056 593.1862236772438V206.81377781573735C4.499944210227056 185.06042395003772 16.105792346832686 164.9572195308334 34.94550595368338 154.07902031989659L369.55440773896555 -39.107202610856746Z " transform="rotate(52.5, 400, 400)" opacity="0.89"></path><path d="M373.9038347374727 23.622373784025683C390.0521606862019 14.300812651372041 409.94790034895436 14.300812651372041 426.09622629768353 23.62498340360372L712.903856399354 189.21317448710647C729.0521823480832 198.5347356197601 739.0000521794594 215.76605369336374 739.0000521794594 234.41178557824912V565.5881677452547C739.0000521794594 584.2338996301401 729.0521823480832 601.4652177037436 712.903856399354 610.7893884559753L426.09622629768353 776.3775795394781C409.94790034895436 785.6991406721316 390.0521606862019 785.6991406721316 373.9038347374727 776.3749699199001L87.09620463580228 610.7867788363974C70.94787868707306 601.4652177037436 61.000008855696876 584.2338996301401 61.000008855696876 565.5881677452547V234.41178557824912C61.000008855696876 215.76605369336374 70.94787868707306 198.5347356197601 87.09620463580228 189.21056486752855L373.9038347374727 23.622373784025683Z " transform="rotate(45, 400, 400)" opacity="0.91"></path><path d="M378.25320070082364 86.35201121406436C391.7101389914312 78.58404360351966 408.289922043725 78.58404360351966 421.7468603343326 86.35418589704608L660.7532187523914 224.34434513329836C674.210157042999 232.11231274384306 682.5000485691459 246.47174447184608 682.5000485691459 262.00985437591726V537.9901728484219C682.5000485691459 553.528282752493 674.210157042999 567.887714480496 660.7532187523914 575.6578567740223L421.7468603343326 713.6480160102747C408.289922043725 721.4159836208195 391.7101389914312 721.4159836208195 378.25320070082364 713.645841327293L139.24684228276493 575.6556820910407C125.78990399215724 567.887714480496 117.50001246601039 553.528282752493 117.50001246601039 537.9901728484219V262.00985437591726C117.50001246601039 246.47174447184608 125.78990399215724 232.11231274384306 139.24684228276493 224.34217045031676L378.25320070082364 86.35201121406436Z " transform="rotate(37.5, 400, 400)" opacity="0.93"></path><path d="M382.60253614659644 149.08161812652492C393.36808677908255 142.86724403808915 406.63191322091745 142.86724403808915 417.39746385340356 149.0833578729103L608.6025505878506 259.4754852619121C619.3681012203367 265.6898593503479 626.0000144412542 277.17740473275035 626.0000144412542 289.60789265600727V510.3921474340109C626.0000144412542 522.8226353572679 619.3681012203367 534.3101807396703 608.6025505878506 540.5262945744914L417.39746385340356 650.9184219634932C406.63191322091745 657.132796051929 393.36808677908255 657.132796051929 382.60253614659644 650.9166822171079L191.39744941214946 540.5245548281061C180.6318987796633 534.3101807396703 173.99998555874583 522.8226353572679 173.99998555874583 510.3921474340109V289.60789265600727C173.99998555874583 277.17740473275035 180.6318987796633 265.6898593503479 191.39744941214946 259.47374551552684L382.60253614659644 149.08161812652492Z " transform="rotate(30, 400, 400)" opacity="0.95"></path><path d="M386.9519021099473 211.81117926261834C395.0260650843119 207.1503986962915 404.9739349156881 207.1503986962915 413.0480978900527 211.8124840724073L556.451912940888 294.6065796141587C564.5260759152525 299.2673601804855 569.5000108309407 307.88301921728737 569.5000108309407 317.20588515973003V482.7940762432329C569.5000108309407 492.1169421856755 564.5260759152525 500.73260122247734 556.451912940888 505.3946865985931L413.0480978900527 588.1887821403445C404.9739349156881 592.8495627066713 395.0260650843119 592.8495627066713 386.9519021099473 588.1874773305556L243.54808705911205 505.39338178880416C235.47392408474747 500.73260122247734 230.49998916905935 492.1169421856755 230.49998916905935 482.7940762432329V317.20588515973003C230.49998916905935 307.88301921728737 235.47392408474747 299.2673601804855 243.54808705911205 294.60527480436974L386.9519021099473 211.81117926261834Z " transform="rotate(22.5, 400, 400)" opacity="0.96"></path><path d="M391.3012680732982 274.54080143386795C396.6840433895413 271.4336143896501 403.3159566104587 271.4336143896501 408.6987319267018 274.5416713070606L504.3012752939253 329.73773500156153C509.68405061016836 332.8449220457794 513.0000072206271 338.58869473698064 513.0000072206271 344.8039386986091V455.1960660876109C513.0000072206271 461.41131004923943 509.68405061016836 467.1550827404406 504.3012752939253 470.2631396578512L408.6987319267018 525.459203352352C403.3159566104587 528.5663903965699 396.6840433895413 528.5663903965699 391.3012680732982 525.4583334791594L295.6987247060747 470.26226978465854C290.31594938983164 467.1550827404406 286.9999927793729 461.41131004923943 286.9999927793729 455.1960660876109V344.8039386986091C286.9999927793729 338.58869473698064 290.31594938983164 332.8449220457794 295.6987247060747 329.7368651283689L391.3012680732982 274.54080143386795Z " transform="rotate(15, 400, 400)" opacity="0.98"></path><path d="M395.6506340366491 337.270400716934C398.3420216947706 335.71680719482504 401.6579783052294 335.71680719482504 404.3493659633509 337.2708356535303L452.15063764696265 364.86886750078077C454.8420253050842 366.4224610228897 456.50000361031357 369.2943473684903 456.50000361031357 372.4019693493045V427.59803304380546C456.50000361031357 430.7056550246197 454.8420253050842 433.5775413702203 452.15063764696265 435.1315698289256L404.3493659633509 462.729601676176C401.6579783052294 464.28319519828494 398.3420216947706 464.28319519828494 395.6506340366491 462.7291667395797L347.84936235303735 435.13113489232927C345.1579746949158 433.5775413702203 343.49999638968643 430.7056550246197 343.49999638968643 427.59803304380546V372.4019693493045C343.49999638968643 369.2943473684903 345.1579746949158 366.4224610228897 347.84936235303735 364.86843256418445L395.6506340366491 337.270400716934Z " transform="rotate(7.5, 400, 400)" opacity="1.00"></path></g></svg>