<svg xmlns="http://www.w3.org/2000/svg" version="1.1" xmlns:xlink="http://www.w3.org/1999/xlink" xmlns:svgjs="http://svgjs.dev/svgjs" viewBox="0 0 1422 800" opacity="0.38"><g stroke-width="1.5" stroke="#d2a995" fill="none" stroke-linecap="butt"><line x1="0" y1="0" x2="102" y2="102" opacity="1.00"></line><line x1="102" y1="0" x2="204" y2="102" opacity="1.00"></line><line x1="306" y1="0" x2="204" y2="102" opacity="1.00"></line><line x1="306" y1="0" x2="408" y2="102" opacity="1.00"></line><line x1="408" y1="0" x2="510" y2="102" opacity="1.00"></line><line x1="510" y1="0" x2="612" y2="102" opacity="1.00"></line><line x1="612" y1="0" x2="714" y2="102" opacity="1.00"></line><line x1="714" y1="0" x2="816" y2="102" opacity="1.00"></line><line x1="816" y1="0" x2="918" y2="102" opacity="1.00"></line><line x1="918" y1="0" x2="1020" y2="102" opacity="1.00"></line><line x1="1122" y1="0" x2="1020" y2="102" opacity="1.00"></line><line x1="1122" y1="0" x2="1224" y2="102" opacity="1.00"></line><line x1="1224" y1="0" x2="1326" y2="102" opacity="1.00"></line><line x1="1326" y1="0" x2="1428" y2="102" opacity="1.00"></line><line x1="0" y1="102" x2="102" y2="204" opacity="0.88"></line><line x1="102" y1="102" x2="204" y2="204" opacity="0.88"></line><line x1="204" y1="102" x2="306" y2="204" opacity="0.88"></line><line x1="408" y1="102" x2="306" y2="204" opacity="0.88"></line><line x1="408" y1="102" x2="510" y2="204" opacity="0.88"></line><line x1="510" y1="102" x2="612" y2="204" opacity="0.88"></line><line x1="612" y1="102" x2="714" y2="204" opacity="0.88"></line><line x1="714" y1="102" x2="816" y2="204" opacity="0.88"></line><line x1="816" y1="102" x2="918" y2="204" opacity="0.88"></line><line x1="918" y1="102" x2="1020" y2="204" opacity="0.88"></line><line x1="1020" y1="102" x2="1122" y2="204" opacity="0.88"></line><line x1="1122" y1="102" x2="1224" y2="204" opacity="0.88"></line><line x1="1224" y1="102" x2="1326" y2="204" opacity="0.88"></line><line x1="1428" y1="102" x2="1326" y2="204" opacity="0.88"></line><line x1="102" y1="204" x2="0" y2="306" opacity="0.76"></line><line x1="102" y1="204" x2="204" y2="306" opacity="0.76"></line><line x1="204" y1="204" x2="306" y2="306" opacity="0.76"></line><line x1="306" y1="204" x2="408" y2="306" opacity="0.76"></line><line x1="408" y1="204" x2="510" y2="306" opacity="0.76"></line><line x1="510" y1="204" x2="612" y2="306" opacity="0.76"></line><line x1="612" y1="204" x2="714" y2="306" opacity="0.76"></line><line x1="816" y1="204" x2="714" y2="306" opacity="0.76"></line><line x1="816" y1="204" x2="918" y2="306" opacity="0.76"></line><line x1="918" y1="204" x2="1020" y2="306" opacity="0.76"></line><line x1="1020" y1="204" x2="1122" y2="306" opacity="0.76"></line><line x1="1122" y1="204" x2="1224" y2="306" opacity="0.76"></line><line x1="1224" y1="204" x2="1326" y2="306" opacity="0.76"></line><line x1="1326" y1="204" x2="1428" y2="306" opacity="0.76"></line><line x1="102" y1="306" x2="0" y2="408" opacity="0.64"></line><line x1="102" y1="306" x2="204" y2="408" opacity="0.64"></line><line x1="204" y1="306" x2="306" y2="408" opacity="0.64"></line><line x1="306" y1="306" x2="408" y2="408" opacity="0.64"></line><line x1="408" y1="306" x2="510" y2="408" opacity="0.64"></line><line x1="510" y1="306" x2="612" y2="408" opacity="0.64"></line><line x1="612" y1="306" x2="714" y2="408" opacity="0.64"></line><line x1="714" y1="306" x2="816" y2="408" opacity="0.64"></line><line x1="816" y1="306" x2="918" y2="408" opacity="0.64"></line><line x1="918" y1="306" x2="1020" y2="408" opacity="0.64"></line><line x1="1122" y1="306" x2="1020" y2="408" opacity="0.64"></line><line x1="1122" y1="306" x2="1224" y2="408" opacity="0.64"></line><line x1="1224" y1="306" x2="1326" y2="408" opacity="0.64"></line><line x1="1326" y1="306" x2="1428" y2="408" opacity="0.64"></line><line x1="0" y1="408" x2="102" y2="510" opacity="0.52"></line><line x1="102" y1="408" x2="204" y2="510" opacity="0.52"></line><line x1="306" y1="408" x2="204" y2="510" opacity="0.52"></line><line x1="306" y1="408" x2="408" y2="510" opacity="0.52"></line><line x1="408" y1="408" x2="510" y2="510" opacity="0.52"></line><line x1="510" y1="408" x2="612" y2="510" opacity="0.52"></line><line x1="612" y1="408" x2="714" y2="510" opacity="0.52"></line><line x1="714" y1="408" x2="816" y2="510" opacity="0.52"></line><line x1="816" y1="408" x2="918" y2="510" opacity="0.52"></line><line x1="918" y1="408" x2="1020" y2="510" opacity="0.52"></line><line x1="1020" y1="408" x2="1122" y2="510" opacity="0.52"></line><line x1="1122" y1="408" x2="1224" y2="510" opacity="0.52"></line><line x1="1224" y1="408" x2="1326" y2="510" opacity="0.52"></line><line x1="1326" y1="408" x2="1428" y2="510" opacity="0.52"></line><line x1="0" y1="510" x2="102" y2="612" opacity="0.39"></line><line x1="102" y1="510" x2="204" y2="612" opacity="0.39"></line><line x1="204" y1="510" x2="306" y2="612" opacity="0.39"></line><line x1="306" y1="510" x2="408" y2="612" opacity="0.39"></line><line x1="408" y1="510" x2="510" y2="612" opacity="0.39"></line><line x1="510" y1="510" x2="612" y2="612" opacity="0.39"></line><line x1="714" y1="510" x2="612" y2="612" opacity="0.39"></line><line x1="816" y1="510" x2="714" y2="612" opacity="0.39"></line><line x1="816" y1="510" x2="918" y2="612" opacity="0.39"></line><line x1="918" y1="510" x2="1020" y2="612" opacity="0.39"></line><line x1="1020" y1="510" x2="1122" y2="612" opacity="0.39"></line><line x1="1122" y1="510" x2="1224" y2="612" opacity="0.39"></line><line x1="1224" y1="510" x2="1326" y2="612" opacity="0.39"></line><line x1="1326" y1="510" x2="1428" y2="612" opacity="0.39"></line><line x1="102" y1="612" x2="0" y2="714" opacity="0.27"></line><line x1="204" y1="612" x2="102" y2="714" opacity="0.27"></line><line x1="306" y1="612" x2="204" y2="714" opacity="0.27"></line><line x1="306" y1="612" x2="408" y2="714" opacity="0.27"></line><line x1="408" y1="612" x2="510" y2="714" opacity="0.27"></line><line x1="510" y1="612" x2="612" y2="714" opacity="0.27"></line><line x1="612" y1="612" x2="714" y2="714" opacity="0.27"></line><line x1="714" y1="612" x2="816" y2="714" opacity="0.27"></line><line x1="816" y1="612" x2="918" y2="714" opacity="0.27"></line><line x1="918" y1="612" x2="1020" y2="714" opacity="0.27"></line><line x1="1020" y1="612" x2="1122" y2="714" opacity="0.27"></line><line x1="1122" y1="612" x2="1224" y2="714" opacity="0.27"></line><line x1="1224" y1="612" x2="1326" y2="714" opacity="0.27"></line><line x1="1326" y1="612" x2="1428" y2="714" opacity="0.27"></line><line x1="0" y1="714" x2="102" y2="816" opacity="0.15"></line><line x1="102" y1="714" x2="204" y2="816" opacity="0.15"></line><line x1="204" y1="714" x2="306" y2="816" opacity="0.15"></line><line x1="306" y1="714" x2="408" y2="816" opacity="0.15"></line><line x1="408" y1="714" x2="510" y2="816" opacity="0.15"></line><line x1="510" y1="714" x2="612" y2="816" opacity="0.15"></line><line x1="612" y1="714" x2="714" y2="816" opacity="0.15"></line><line x1="714" y1="714" x2="816" y2="816" opacity="0.15"></line><line x1="816" y1="714" x2="918" y2="816" opacity="0.15"></line><line x1="918" y1="714" x2="1020" y2="816" opacity="0.15"></line><line x1="1020" y1="714" x2="1122" y2="816" opacity="0.15"></line><line x1="1224" y1="714" x2="1122" y2="816" opacity="0.15"></line><line x1="1224" y1="714" x2="1326" y2="816" opacity="0.15"></line><line x1="1326" y1="714" x2="1428" y2="816" opacity="0.15"></line></g></svg>