<svg xmlns="http://www.w3.org/2000/svg" version="1.1" xmlns:xlink="http://www.w3.org/1999/xlink" xmlns:svgjs="http://svgjs.dev/svgjs" viewBox="0 0 800 800" opacity="0.28"><defs><linearGradient x1="50%" y1="0%" x2="50%" y2="100%" id="gggyrate-grad"><stop stop-color="#3c445e" stop-opacity="1" offset="0%"></stop><stop stop-color="#3e0705" stop-opacity="1" offset="100%"></stop></linearGradient></defs><g stroke-width="1" stroke="url(#gggyrate-grad)" fill="none"><path d="M135.38146507501096 -3416.513380942317C299.1273956023165 -3511.035110716644 500.87254336252727 -3511.035110716644 664.6184738898328 -3416.4869190918757L3572.8816847290427 -1737.4031230755315C3736.6276152563487 -1642.8813933012043 3837.5001891364536 -1468.1537948409905 3837.5001891364536 -1279.0838734418944V2079.083718590794C3837.5001891364536 2268.1536399898905 3736.6276152563487 2442.8812384501034 3572.8816847290427 2537.4294300748716L664.6184738898328 4216.513226091216C500.87254336252727 4311.0349558655425 299.1273956023165 4311.0349558655425 135.38146507501096 4216.486764240776L-2772.881745764199 2537.402968224432C-2936.6276762915045 2442.8812384501034 -3037.50025017161 2268.1536399898905 -3037.50025017161 2079.083718590794V-1279.0838734418944C-3037.50025017161 -1468.1537948409905 -2936.6276762915045 -1642.8813933012043 -2772.881745764199 -1737.4295849259718L135.38146507501096 -3416.513380942317Z " transform="rotate(550, 400, 400)" opacity="0.05"></path><path d="M140.19271060969095 -3347.122318727119C300.96144240013655 -3439.9254715964585 499.0384965647072 -3439.9254715964585 659.8072283551528 -3347.0963380012317L3515.1929262700132 -1698.5413382760937C3675.961658060459 -1605.7381854067544 3775.000185142744 -1434.1874523730894 3775.000185142744 -1248.5551659085227V2048.5548335417543C3775.000185142744 2234.1871200063206 3675.961658060459 2405.7378530399856 3515.1929262700132 2498.566986635212L659.8072283551528 4147.12198636035C499.0384965647072 4239.925139229688 300.96144240013655 4239.925139229688 140.19271060969095 4147.096005634462L-2715.1929873051695 2498.5410059093247C-2875.961719095615 2405.7378530399856 -2975.0002461779004 2234.1871200063206 -2975.0002461779004 2048.5548335417543V-1248.5551659085227C-2975.0002461779004 -1434.1874523730894 -2875.961719095615 -1605.7381854067544 -2715.1929873051695 -1698.5673190019802L140.19271060969095 -3347.122318727119Z " transform="rotate(540, 400, 400)" opacity="0.07"></path><path d="M145.0039561443714 -3277.7310123712964C302.7954891979566 -3368.815588335648 497.20444976688714 -3368.815588335648 654.9959828204724 -3277.7055127699623L3457.5041678109837 -1659.6793093360309C3615.29570086457 -1568.594733371679 3712.5001811490347 -1400.2208657645642 3712.5001811490347 -1218.026214234526V2018.026192633337C3712.5001811490347 2200.2208441633757 3615.29570086457 2368.594711770491 3457.5041678109837 2459.7047873361753L654.9959828204724 4077.7309907701065C497.20444976688714 4168.815566734458 302.7954891979566 4168.815566734458 145.0039561443714 4077.7054911687746L-2657.50422884614 2459.6792877348425C-2815.295761899725 2368.594711770491 -2912.5002421841905 2200.2208441633757 -2912.5002421841905 2018.026192633337V-1218.026214234526C-2912.5002421841905 -1400.2208657645642 -2815.295761899725 -1568.594733371679 -2657.50422884614 -1659.704808937364L145.0039561443714 -3277.7310123712964Z " transform="rotate(530, 400, 400)" opacity="0.09"></path><path d="M149.81520167905137 -3208.339950156099C304.6295359957767 -3297.7059492154626 495.3704029690671 -3297.7059492154626 650.1847372857924 -3208.3149316793183L3399.8154093519543 -1620.8175245365928C3554.62974366868 -1531.4515254772289 3650.000177155325 -1366.2545232966631 3650.000177155325 -1187.4975067011542V1987.4973075842972C3650.000177155325 2166.2543241798057 3554.62974366868 2331.4513263603712 3399.8154093519543 2420.8423438965156L650.1847372857924 4008.3397510392406C495.3704029690671 4097.705750098605 304.6295359957767 4097.705750098605 149.81520167905137 4008.3147325624604L-2599.8154703871105 2420.8173254197354C-2754.629804703836 2331.4513263603712 -2850.000238190481 2166.2543241798057 -2850.000238190481 1987.4973075842972V-1187.4975067011542C-2850.000238190481 -1366.2545232966631 -2754.629804703836 -1531.4515254772289 -2599.8154703871105 -1620.8425430133725L149.81520167905137 -3208.339950156099Z " transform="rotate(520, 400, 400)" opacity="0.10"></path><path d="M154.6264472137318 -3138.948643800276C306.46358279359674 -3226.596065954652 493.536356171247 -3226.596065954652 645.3734917511119 -3138.9241064480493L3342.1266508929248 -1581.95549559653C3493.96378647279 -1494.3080734421537 3587.500173161615 -1332.2879366881375 3587.500173161615 -1156.968555027157V1956.9686666758807C3587.500173161615 2132.288048336861 3493.96378647279 2294.3081850908775 3342.1266508929248 2381.98014459748L645.3734917511119 3938.948755448999C493.536356171247 4026.5961776033755 306.46358279359674 4026.5961776033755 154.6264472137318 3938.924218096773L-2542.126711928081 2381.9556072452533C-2693.9638475079464 2294.3081850908775 -2787.500234196771 2132.288048336861 -2787.500234196771 1956.9686666758807V-1156.968555027157C-2787.500234196771 -1332.2879366881375 -2693.9638475079464 -1494.3080734421537 -2542.126711928081 -1581.9800329487562L154.6264472137318 -3138.948643800276Z " transform="rotate(510, 400, 400)" opacity="0.12"></path><path d="M159.4376927484118 -3069.5575968438675C308.2976295914168 -3155.486442093256 491.70230937342694 -3155.486442093256 640.562246216432 -3069.533540616194L3284.4378924338953 -1543.093726055881C3433.297829276901 -1457.1648808064926 3525.0001691679054 -1298.3216094790255 3525.0001691679054 -1126.4398627525748V1926.439766368052C3525.0001691679054 2098.3215130945027 3433.297829276901 2257.1647844219697 3284.4378924338953 2343.117685899031L640.562246216432 3869.557500459344C491.70230937342694 3955.486345708732 308.2976295914168 3955.486345708732 159.4376927484118 3869.5334442316707L-2484.4379534690515 2343.093629671358C-2633.2978903120566 2257.1647844219697 -2725.0002302030616 2098.3215130945027 -2725.0002302030616 1926.439766368052V-1126.4398627525748C-2725.0002302030616 -1298.3216094790255 -2633.2978903120566 -1457.1648808064926 -2484.4379534690515 -1543.1177822835537L159.4376927484118 -3069.5575968438675Z " transform="rotate(500, 400, 400)" opacity="0.14"></path><path d="M164.2489077655141 -3000.16653462867C310.13164587165875 -3084.3768029730704 489.86823205802875 -3084.3768029730704 635.7509701641734 -3000.14295952555L3226.7491034572877 -1504.231941256443C3372.631841563433 -1420.0216729120423 3462.500134656618 -1264.3552670111249 3462.500134656618 -1095.9111552192026V1895.9108813190105C3462.500134656618 2064.3549931109337 3372.631841563433 2220.021399011851 3226.7491034572877 2304.2552424593705L635.7509701641734 3800.166260728477C489.86823205802875 3884.376529072878 310.13164587165875 3884.376529072878 164.2489077655141 3800.1426856253584L-2426.7492255276 2304.231667356252C-2572.6319636337453 2220.021399011851 -2662.5002567269303 2064.3549931109337 -2662.5002567269303 1895.9108813190105V-1095.9111552192026C-2662.5002567269303 -1264.3552670111249 -2572.6319636337453 -1420.0216729120423 -2426.7492255276 -1504.2555163595623L164.2489077655141 -3000.16653462867Z " transform="rotate(490, 400, 400)" opacity="0.16"></path><path d="M169.0601533001941 -2930.775228272847C311.9656926694788 -3013.26691971226 488.0341852602087 -3013.26691971226 630.9397246294934 -2930.7521342942805L3169.060344998258 -1465.3699123163801C3311.9658843675434 -1382.8782208769674 3400.0001306629083 -1230.388680402599 3400.0001306629083 -1065.3822035452058V1865.382240410595C3400.0001306629083 2030.3887172679879 3311.9658843675434 2182.8782577423563 3169.060344998258 2265.393043160335L630.9397246294934 3730.775265138235C488.0341852602087 3813.2669565776487 311.9656926694788 3813.2669565776487 169.0601533001941 3730.752171159669L-2369.0604670685707 2265.369949181769C-2511.966006437856 2182.8782577423563 -2600.0002527332203 2030.3887172679879 -2600.0002527332203 1865.382240410595V-1065.3822035452058C-2600.0002527332203 -1230.388680402599 -2511.966006437856 -1382.8782208769674 -2369.0604670685707 -1465.3930062949462L169.0601533001941 -2930.775228272847Z " transform="rotate(480, 400, 400)" opacity="0.17"></path><path d="M173.87139883487453 -2861.3841660576495C313.7997394672989 -2942.1572805920746 486.2001384623886 -2942.1572805920746 626.128479094813 -2861.3615532036365L3111.3715865392287 -1426.5081275169423C3251.2999271716544 -1345.7350129825172 3337.500126669198 -1196.4223379346981 3337.500126669198 -1034.853496011834V1834.8533553615543C3337.500126669198 1996.422197284418 3251.2999271716544 2145.7348723322375 3111.3715865392287 2226.530599720675L626.128479094813 3661.3840254073684C486.2001384623886 3742.1571399417944 313.7997394672989 3742.1571399417944 173.87139883487453 3661.361412553356L-2311.371708609541 2226.5079868666626C-2451.300049241966 2145.7348723322375 -2537.500248739511 1996.422197284418 -2537.500248739511 1834.8533553615543V-1034.853496011834C-2537.500248739511 -1196.4223379346981 -2451.300049241966 -1345.7350129825172 -2311.371708609541 -1426.5307403709548L173.87139883487453 -2861.3841660576495Z " transform="rotate(470, 400, 400)" opacity="0.19"></path><path d="M178.6826443695545 -2791.993119101241C315.63378626511894 -2871.047656730678 484.36609166456856 -2871.047656730678 621.317233560133 -2791.970987371781L3053.682828080199 -1387.6463579762933C3190.6339699757646 -1308.5918203468561 3275.0001226754885 -1162.4560107255863 3275.0001226754885 -1004.3248037372514V1804.3244550537247C3275.0001226754885 1962.455662042059 3190.6339699757646 2108.5914716633297 3053.682828080199 2187.6681410222254L621.317233560133 3591.9927704177135C484.36609166456856 3671.047308047151 315.63378626511894 3671.047308047151 178.6826443695545 3591.9706386882544L-2253.6829501505117 2187.6460092927664C-2390.6340920460766 2108.5914716633297 -2475.000244745801 1962.455662042059 -2475.000244745801 1804.3244550537247V-1004.3248037372514C-2475.000244745801 -1162.4560107255863 -2390.6340920460766 -1308.5918203468561 -2253.6829501505117 -1387.6684897057523L178.6826443695545 -2791.993119101241Z " transform="rotate(460, 400, 400)" opacity="0.21"></path><path d="M183.49388990423495 -2722.601812745418C317.467833062939 -2799.937773469868 482.5320448667485 -2799.937773469868 616.5059880254526 -2722.580162140512L2995.9940696211697 -1348.7843290362302C3129.9680127798747 -1271.4483683117808 3212.500118681779 -1128.4894241170605 3212.500118681779 -973.7958520632546V1773.7958141453091C3212.500118681779 1928.489386199115 3129.9680127798747 2071.448330393835 2995.9940696211697 2148.80594172319L616.5059880254526 3522.6017748274726C482.5320448667485 3599.937735551922 317.467833062939 3599.937735551922 183.49388990423495 3522.580124222566L-2195.9941916914822 2148.784291118285C-2329.968134850187 2071.448330393835 -2412.5002407520915 1928.489386199115 -2412.5002407520915 1773.7958141453091V-973.7958520632546C-2412.5002407520915 -1128.4894241170605 -2329.968134850187 -1271.4483683117808 -2195.9941916914822 -1348.805979641136L183.49388990423495 -2722.601812745418Z " transform="rotate(450, 400, 400)" opacity="0.23"></path><path d="M188.30513543891493 -2653.2105063895956C319.3018798607591 -2728.8278902090574 480.6979980689284 -2728.8278902090574 611.6947424907726 -2653.189336909243L2938.3053111621402 -1309.9223000961674C3069.302055583985 -1234.3049162767056 3150.0001146880695 -1094.5228375085346 3150.0001146880695 -943.2669003892577V1743.2671732368935C3150.0001146880695 1894.523110356171 3069.302055583985 2034.3051891243413 2938.3053111621402 2109.943742424155L611.6947424907726 3453.210779237231C480.6979980689284 3528.8281630566926 319.3018798607591 3528.8281630566926 188.30513543891493 3453.189609756879L-2138.3054332324527 2109.922572943803C-2269.3021776542973 2034.3051891243413 -2350.0002367583816 1894.523110356171 -2350.0002367583816 1743.2671732368935V-943.2669003892577C-2350.0002367583816 -1094.5228375085346 -2269.3021776542973 -1234.3049162767056 -2138.3054332324527 -1309.9434695765194L188.30513543891493 -2653.2105063895956Z " transform="rotate(440, 400, 400)" opacity="0.24"></path><path d="M193.11638097359537 -2583.819688315023C321.13592665857914 -2657.718495229497 478.86395127110836 -2657.718495229497 606.8834969560921 -2583.7989999592237L2880.6165527031108 -1271.0607594373546C3008.636098388096 -1197.1619525228805 3087.50011069436 -1060.556739181259 3087.50011069436 -912.7384369965109V1712.738044047227C3087.50011069436 1860.556346231975 3008.636098388096 1997.1615595735966 2880.6165527031108 2071.0810548438694L606.8834969560921 3383.819295365738C478.86395127110836 3457.7181022802124 321.13592665857914 3457.7181022802124 193.11638097359537 3383.7986070099396L-2080.6166747734233 2071.06036648807C-2208.636220458408 1997.1615595735966 -2287.500232764672 1860.556346231975 -2287.500232764672 1712.738044047227V-912.7384369965109C-2287.500232764672 -1060.556739181259 -2208.636220458408 -1197.1619525228805 -2080.6166747734233 -1271.0814477931533L193.11638097359537 -2583.819688315023Z " transform="rotate(430, 400, 400)" opacity="0.26"></path><path d="M197.92759599069723 -2514.4283819592C322.9699429388211 -2586.6086119686865 477.0298739557102 -2586.6086119686865 602.072220903834 -2514.4081747279547L2822.927763726503 -1232.1987304972915C2947.970110674628 -1160.0185004878053 3025.0000761830715 -1026.5901525727331 3025.0000761830715 -882.2094853225142V1682.2094031388115C3025.0000761830715 1826.5900703890302 2947.970110674628 1960.018418304102 2822.927763726503 2032.2188555448347L602.072220903834 3314.428299775497C477.0298739557102 3386.608529784984 322.9699429388211 3386.608529784984 197.92759599069723 3314.4080925442513L-2022.9279468319721 2032.1986483135888C-2147.9702937800967 1960.018418304102 -2225.0002592885403 1826.5900703890302 -2225.0002592885403 1682.2094031388115V-882.2094853225142C-2225.0002592885403 -1026.5901525727331 -2147.9702937800967 -1160.0185004878053 -2022.9279468319721 -1232.2189377285367L197.92759599069723 -2514.4283819592Z " transform="rotate(420, 400, 400)" opacity="0.28"></path><path d="M202.7388415253772 -2445.0370756033776C324.8039897366416 -2515.498728707876 475.19582715788965 -2515.498728707876 597.260975369154 -2445.0173494966853L2765.2390052674737 -1193.3367015572287C2887.304153478738 -1122.8750484527302 2962.500072189362 -992.623565964207 2962.500072189362 -851.6805336485172V1651.6807622303959C2962.500072189362 1792.6237945460862 2887.304153478738 1922.875277034609 2765.2390052674737 1993.356656245799L597.260975369154 3245.0373041852554C475.19582715788965 3315.498957289754 324.8039897366416 3315.498957289754 202.7388415253772 3245.017578078564L-1965.2391883729426 1993.3369301391076C-2087.304336584207 1922.875277034609 -2162.500255294831 1792.6237945460862 -2162.500255294831 1651.6807622303959V-851.6805336485172C-2162.500255294831 -992.623565964207 -2087.304336584207 -1122.8750484527302 -1965.2391883729426 -1193.3564276639204L202.7388415253772 -2445.0370756033776Z " transform="rotate(410, 400, 400)" opacity="0.30"></path><path d="M207.55008706005765 -2375.646028646969C326.63803653446166 -2444.3891048464798 473.3617803600696 -2444.3891048464798 592.4497298344736 -2375.6267836648303L2707.550246808444 -1154.4749320165797C2826.638196282849 -1085.7318558170691 2900.0000681956526 -958.6572387550955 2900.0000681956526 -821.1518413739345V1621.1518619225662C2900.0000681956526 1758.6572593037272 2826.638196282849 1885.7318763657013 2707.550246808444 1954.4941975473494L592.4497298344736 3175.6460491955995C473.3617803600696 3244.3891253951115 326.63803653446166 3244.3891253951115 207.55008706005765 3175.6268042134616L-1907.5504299139131 1954.4749525652114C-2026.6383793883174 1885.7318763657013 -2100.0002513011214 1758.6572593037272 -2100.0002513011214 1621.1518619225662V-821.1518413739345C-2100.0002513011214 -958.6572387550955 -2026.6383793883174 -1085.7318558170691 -1907.5504299139131 -1154.4941769987179L207.55008706005765 -2375.646028646969Z " transform="rotate(400, 400, 400)" opacity="0.31"></path><path d="M212.36133259473763 -2306.254722291146C328.4720833322822 -2373.2792215856693 471.52773356224907 -2373.2792215856693 587.6384842997936 -2306.235958433561L2649.8614883494147 -1115.6129030765167C2765.9722390869592 -1048.5884037819937 2837.500064201943 -924.6906521465696 2837.500064201943 -790.6228896999376V1590.6232210141507C2837.500064201943 1724.6909834607823 2765.9722390869592 1848.5887350962066 2649.8614883494147 1915.6319982483146L587.6384842997936 3106.2550536053595C471.52773356224907 3173.2795528998813 328.4720833322822 3173.2795528998813 212.36133259473763 3106.236289747774L-1849.8616714548837 1915.6132343907302C-1965.9724221924278 1848.5887350962066 -2037.5002473074114 1724.6909834607823 -2037.5002473074114 1590.6232210141507V-790.6228896999376C-2037.5002473074114 -924.6906521465696 -1965.9724221924278 -1048.5884037819937 -1849.8616714548837 -1115.6316669341018L212.36133259473763 -2306.254722291146Z " transform="rotate(390, 400, 400)" opacity="0.33"></path><path d="M217.17257812941807 -2236.8636600759487C330.30613013010225 -2302.169582465484 469.693686764429 -2302.169582465484 582.8272387651132 -2236.845377342917L2592.172729890385 -1076.751118277079C2705.3062818910694 -1011.4451958875438 2775.0000602082328 -890.724309678669 2775.0000602082328 -760.094182166566V1560.09433596511C2775.0000602082328 1690.7244634772123 2705.3062818910694 1811.445349686087 2592.172729890385 1876.769554808653L582.8272387651132 3036.863813874492C469.693686764429 3102.169736264027 330.30613013010225 3102.169736264027 217.17257812941807 3036.84553114146L-1792.1729129958544 1876.7512720756222C-1905.3064649965381 1811.445349686087 -1975.000243313702 1690.7244634772123 -1975.000243313702 1560.09433596511V-760.094182166566C-1975.000243313702 -890.724309678669 -1905.3064649965381 -1011.4451958875438 -1792.1729129958544 -1076.7694010101104L217.17257812941807 -2236.8636600759487Z " transform="rotate(380, 400, 400)" opacity="0.35"></path><path d="M221.98382366409805 -2167.4726131195403C332.1401769279223 -2231.0599586040876 467.85963996660894 -2231.0599586040876 578.0159932304332 -2167.454811511062L2534.4839714313557 -1037.8893487364303C2644.6403246951804 -974.3020032518825 2712.5000562145233 -856.757982469557 2712.5000562145233 -729.5654898919834V1529.5654356572795C2712.5000562145233 1656.7579282348543 2644.6403246951804 1774.3019490171791 2534.4839714313557 1837.9070961102043L578.0159932304332 2967.472558884836C467.85963996660894 3031.0599043693837 332.1401769279223 3031.0599043693837 221.98382366409805 2967.4547572763577L-1734.484154536825 1837.889294501727C-1844.6405078006485 1774.3019490171791 -1912.5002393199923 1656.7579282348543 -1912.5002393199923 1529.5654356572795V-729.5654898919834C-1912.5002393199923 -856.757982469557 -1844.6405078006485 -974.3020032518825 -1734.484154536825 -1037.9071503449081L221.98382366409805 -2167.4726131195403Z " transform="rotate(370, 400, 400)" opacity="0.37"></path><path d="M226.7950691987785 -2098.0813067637173C333.9742237257424 -2159.950075343277 466.0255931687889 -2159.950075343277 573.2047476957528 -2098.0639862797925L2476.795212972326 -999.0273197963672C2583.9743674992906 -937.1585512168076 2650.000052220814 -822.7913958610313 2650.000052220814 -699.0365382179864V1499.0367947488644C2650.000052220814 1622.7916523919089 2583.9743674992906 1737.1588077476845 2476.795212972326 1799.0448968111687L573.2047476957528 2898.081563294595C466.0255931687889 2959.9503318741545 333.9742237257424 2959.9503318741545 226.7950691987785 2898.0642428106703L-1676.7953960777954 1799.0275763272457C-1783.9745506047589 1737.1588077476845 -1850.0002353262826 1622.7916523919089 -1850.0002353262826 1499.0367947488644V-699.0365382179864C-1850.0002353262826 -822.7913958610313 -1783.9745506047589 -937.1585512168076 -1676.7953960777954 -999.0446402802916L226.7950691987785 -2098.0813067637173Z " transform="rotate(360, 400, 400)" opacity="0.38"></path><path d="M231.60631473345893 -2028.6902445485198C335.80827052356244 -2088.8404362230917 464.1915463709688 -2088.8404362230917 568.3935021610728 -2028.6734051891483L2419.1064545132967 -960.1655349969292C2523.3084103034007 -900.0153433223572 2587.5000482271043 -788.8250533931305 2587.5000482271043 -668.5078306846146V1468.5079096998238C2587.5000482271043 1588.8251324083394 2523.3084103034007 1700.0154223375666 2419.1064545132967 1760.182453371509L568.3935021610728 2828.6903235637283C464.1915463709688 2888.8405152383 335.80827052356244 2888.8405152383 231.60631473345893 2828.673484204357L-1619.106637618766 1760.1656140121381C-1723.3085934088695 1700.0154223375666 -1787.5002313325729 1588.8251324083394 -1787.5002313325729 1468.5079096998238V-668.5078306846146C-1787.5002313325729 -788.8250533931305 -1723.3085934088695 -900.0153433223572 -1619.106637618766 -960.1823743563002L231.60631473345893 -2028.6902445485198Z " transform="rotate(350, 400, 400)" opacity="0.40"></path><path d="M236.4175297505608 -1959.299182333322C337.6422868038044 -2017.7307971029063 462.3574690555706 -2017.7307971029063 563.5822261088142 -1959.282824098504L2361.41766553669 -921.3037501974914C2462.6424225899336 -862.8721354279071 2525.0000137158167 -754.8587109252294 2525.0000137158167 -637.9791231512427V1437.9790246507832C2525.0000137158167 1554.8586124247695 2462.6424225899336 1662.8720369274474 2361.41766553669 1721.3200099318492L563.5822261088142 2759.2990838328615C462.3574690555706 2817.730698602446 337.6422868038044 2817.730698602446 236.4175297505608 2759.2827255980437L-1561.4179096773146 1721.3036516970315C-1662.642666730558 1662.8720369274474 -1725.0002578564413 1554.8586124247695 -1725.0002578564413 1437.9790246507832V-637.9791231512427C-1725.0002578564413 -754.8587109252294 -1662.642666730558 -862.8721354279071 -1561.4179096773146 -921.3201084323086L236.4175297505608 -1959.299182333322Z " transform="rotate(340, 400, 400)" opacity="0.42"></path><path d="M241.22877528524077 -1889.9078759774993C339.476333601624 -1946.620913842096 460.52342225775055 -1946.620913842096 558.7709805741342 -1889.8919988672349L2303.7289070776606 -882.4417212574285C2401.9764653940438 -825.7286833928322 2462.5000097221064 -720.8921243167038 2462.5000097221064 -607.4501714772462V1407.4503837423667C2462.5000097221064 1520.8923365818246 2401.9764653940438 1625.7288956579528 2303.7289070776606 1682.457810632813L558.7709805741342 2689.9080882426197C460.52342225775055 2746.621126107216 339.476333601624 2746.621126107216 241.22877528524077 2689.8922111323554L-1503.729151218285 1682.4419335225493C-1601.9767095346683 1625.7288956579528 -1662.5002538627316 1520.8923365818246 -1662.5002538627316 1407.4503837423667V-607.4501714772462C-1662.5002538627316 -720.8921243167038 -1601.9767095346683 -825.7286833928322 -1503.729151218285 -882.4575983676925L241.22877528524077 -1889.9078759774993Z " transform="rotate(330, 400, 400)" opacity="0.44"></path><path d="M246.04014289023326 -1820.5168137623018C341.310502469757 -1875.5112747219105 458.689497530243 -1875.5112747219105 553.9598571097663 -1820.5014177765906L2246.0402706889436 -843.5799364579907C2341.3106302684664 -788.5854754983818 2400.0001277987094 -686.9257818488031 2400.0001277987094 -576.9214639438744V1376.9214986933262C2400.0001277987094 1486.9258165982546 2341.3106302684664 1588.5855102478336 2246.0402706889436 1643.595367193153L553.9598571097663 2620.516848511753C458.689497530243 2675.5113094713624 341.310502469757 2675.5113094713624 246.04014289023326 2620.501452526042L-1446.040270688943 1643.5799712074422C-1541.3106302684664 1588.5855102478336 -1600.0001277987094 1486.9258165982546 -1600.0001277987094 1376.9214986933262V-576.9214639438744C-1600.0001277987094 -686.9257818488031 -1541.3106302684664 -788.5854754983818 -1446.040270688943 -843.595332443701L246.04014289023326 -1820.5168137623018Z " transform="rotate(320, 400, 400)" opacity="0.45"></path><path d="M250.8513884249137 -1751.125507406479C343.1445492675766 -1804.4013914611 456.8554507324234 -1804.4013914611 549.1486115750863 -1751.1105925453217L2188.3515122299136 -804.7179075179274C2280.6446730725766 -751.4420234633067 2337.500123805 -652.9591952402773 2337.500123805 -546.3925122698774V1346.3928577849106C2337.500123805 1452.9595407553106 2280.6446730725766 1551.4423689783398 2188.3515122299136 1604.7331678941177L549.1486115750863 2551.125852921512C456.8554507324234 2604.4017369761323 343.1445492675766 2604.4017369761323 250.8513884249137 2551.110938060354L-1388.3515122299136 1604.718253032961C-1480.6446730725768 1551.4423689783398 -1537.500123805 1452.9595407553106 -1537.500123805 1346.3928577849106V-546.3925122698774C-1537.500123805 -652.9591952402773 -1480.6446730725768 -751.4420234633067 -1388.3515122299136 -804.7328223790846L250.8513884249137 -1751.125507406479Z " transform="rotate(310, 400, 400)" opacity="0.47"></path><path d="M255.6626339595939 -1681.7344604500704C344.97859606539714 -1733.2917675997037 455.02140393460286 -1733.2917675997037 544.3373660404059 -1681.7200267134663L2130.662753770884 -765.8561379772786C2219.9787158766876 -714.2988308276456 2275.00011981129 -618.9928680311652 2275.00011981129 -515.8638199952948V1315.863957477081C2275.00011981129 1418.9930055129516 2219.9787158766876 1514.298968309432 2130.662753770884 1565.8707091956685L544.3373660404059 2481.734597931856C455.02140393460286 2533.29190508149 344.97859606539714 2533.29190508149 255.6626339595939 2481.7201641952524L-1330.6627537708841 1565.8562754590648C-1419.9787158766871 1514.298968309432 -1475.00011981129 1418.9930055129516 -1475.00011981129 1315.863957477081V-515.8638199952948C-1475.00011981129 -618.9928680311652 -1419.9787158766871 -714.2988308276456 -1330.6627537708841 -765.8705717138823L255.6626339595939 -1681.7344604500704Z " transform="rotate(300, 400, 400)" opacity="0.49"></path><path d="M260.4738794942741 -1612.343398234873C346.8126428632172 -1662.1821284795183 453.1873571367828 -1662.1821284795183 539.5261205057259 -1612.3294456228223L2072.9739953118547 -726.9943531778408C2159.3127586807977 -677.1556229331954 2212.5001158175805 -585.0265255632644 2212.5001158175805 -485.3351124619228V1285.3350724280403C2212.5001158175805 1385.0264855293822 2159.3127586807977 1477.1555828993128 2072.9739953118547 1527.0082657560083L539.5261205057259 2412.34335820099C453.1873571367828 2462.1820884456347 346.8126428632172 2462.1820884456347 260.4738794942741 2412.32940558894L-1272.9739953118547 1526.9943131439582C-1359.3127586807977 1477.1555828993128 -1412.5001158175805 1385.0264855293822 -1412.5001158175805 1285.3350724280403V-485.3351124619228C-1412.5001158175805 -585.0265255632644 -1359.3127586807977 -677.1556229331954 -1272.9739953118547 -727.008305789891L260.4738794942741 -1612.343398234873Z " transform="rotate(290, 400, 400)" opacity="0.51"></path><path d="M265.2851250289543 -1542.9522139493627C348.64668966103727 -1591.0723672890203 451.35331033896273 -1591.0723672890203 534.7148749710459 -1542.9387424618656L2015.2852368528252 -688.1324463080903C2098.6468014849083 -640.0122929684326 2150.0001118238706 -551.0600610250513 2150.0001118238706 -454.80628285823855V1254.8063094493123C2150.0001118238706 1351.0600876161247 2098.6468014849083 1440.012319559506 2015.2852368528252 1488.1459443866602L534.7148749710459 2342.952240540436C451.35331033896273 2391.072393880093 348.64668966103727 2391.072393880093 265.2851250289543 2342.9387690529384L-1215.2852368528252 1488.1324728991635C-1298.646801484908 1440.012319559506 -1350.0001118238708 1351.0600876161247 -1350.0001118238708 1254.8063094493123V-454.80628285823855C-1350.0001118238708 -551.0600610250513 -1298.646801484908 -640.0122929684326 -1215.2852368528252 -688.1459177955871L265.2851250289543 -1542.9522139493627Z " transform="rotate(280, 400, 400)" opacity="0.53"></path><path d="M270.09637056363454 -1473.5610449226415C350.48073645885734 -1519.9626213573113 449.51926354114266 -1519.9626213573113 529.9036294363655 -1473.548054559698L1957.5964783937957 -649.2705546971288C2037.9808442890185 -602.8689782624592 2087.500107830161 -517.0936117456267 2087.500107830161 -424.27746851334336V1224.2775312117951C2087.500107830161 1317.0936744440783 2037.9808442890185 1402.8690409609108 1957.5964783937957 1449.2836077585239L529.9036294363655 2273.561107621093C449.51926354114266 2319.962684055762 350.48073645885734 2319.962684055762 270.09637056363454 2273.548117258149L-1157.5964783937957 1449.2706173955803C-1237.9808442890185 1402.8690409609108 -1287.5001078301611 1317.0936744440783 -1287.5001078301611 1224.2775312117951V-424.27746851334336C-1287.5001078301611 -517.0936117456267 -1237.9808442890185 -602.8689782624592 -1157.5964783937957 -649.2835450600721L270.09637056363454 -1473.5610449226415Z " transform="rotate(270, 400, 400)" opacity="0.54"></path><path d="M274.9075855807366 -1404.169982707444C352.3147527390993 -1448.8529822371258 447.6851862257445 -1448.8529822371258 525.0923533841071 -1404.1574734690537L1899.907689417188 -610.408769897691C1977.314856575551 -565.7257703680089 2025.0000733188735 -483.1272692777261 2025.0000733188735 -393.7487609799716V1193.748646162754C2025.0000733188735 1283.1271544605083 1977.314856575551 1365.725655550791 1899.907689417188 1410.4211643188632L525.0923533841071 2204.1698678902258C447.6851862257445 2248.852867419908 352.3147527390993 2248.852867419908 274.9075855807366 2204.1573586518357L-1099.9077504523443 1410.4086550804732C-1177.314917610707 1365.725655550791 -1225.0001343540296 1283.1271544605083 -1225.0001343540296 1193.748646162754V-393.7487609799716C-1225.0001343540296 -483.1272692777261 -1177.314917610707 -565.7257703680089 -1099.9077504523443 -610.4212791360808L274.9075855807366 -1404.169982707444Z " transform="rotate(260, 400, 400)" opacity="0.56"></path><path d="M279.71883111541683 -1334.7787984219337C354.14879953691934 -1377.743221046628 445.8511394279244 -1377.743221046628 520.2811078494269 -1334.766770308097L1842.2189309581586 -571.5468630279406C1916.6488993796615 -528.5824404032464 1962.5000693251636 -449.16080473951274 1962.5000693251636 -363.2199313762874V1163.219883184026C1962.5000693251636 1249.1607565472514 1916.6488993796615 1328.5823922109848 1842.2189309581586 1371.5588429495156L520.2811078494269 2134.778750229672C445.8511394279244 2177.743172854366 354.14879953691934 2177.743172854366 279.71883111541683 2134.7667221158354L-1042.2189919933148 1371.546814835679C-1116.6489604148173 1328.5823922109848 -1162.5001303603199 1249.1607565472514 -1162.5001303603199 1163.219883184026V-363.2199313762874C-1162.5001303603199 -449.16080473951274 -1116.6489604148173 -528.5824404032464 -1042.2189919933148 -571.5588911417767L279.71883111541683 -1334.7787984219337Z " transform="rotate(250, 400, 400)" opacity="0.58"></path><path d="M284.53007665009704 -1265.3876141364235C355.9828463347394 -1306.63345985613 444.01709263010434 -1306.63345985613 515.4698623147467 -1265.3760671471402L1784.530172499129 -532.6849561581901C1855.9829421837717 -491.43911043848357 1900.0000653314542 -415.1943402012994 1900.0000653314542 -332.6911017726029V1132.6911202052975C1900.0000653314542 1215.194358633994 1855.9829421837717 1291.4391288711781 1784.530172499129 1332.6965215801674L515.4698623147467 2065.3876325691176C444.01709263010434 2106.6334782888243 355.9828463347394 2106.6334782888243 284.53007665009704 2065.3760855798346L-984.5302335342853 1332.6849745908844C-1055.983003218928 1291.4391288711781 -1100.0001263666102 1215.194358633994 -1100.0001263666102 1132.6911202052975V-332.6911017726029C-1100.0001263666102 -415.1943402012994 -1055.983003218928 -491.43911043848357 -984.5302335342853 -532.6965031474731L284.53007665009704 -1265.3876141364235Z " transform="rotate(240, 400, 400)" opacity="0.60"></path><path d="M289.34132218477725 -1195.9964298509135C357.81689313255947 -1235.523698665632 442.1830458322843 -1235.523698665632 510.6586167800665 -1195.9853639861835L1726.8414140400996 -493.8230492884396C1795.3169849878823 -454.29578047372115 1837.5000613377442 -381.22787566308625 1837.5000613377442 -302.16227216891866V1102.1623572265694C1837.5000613377442 1181.2279607207365 1795.3169849878823 1254.2958655313719 1726.8414140400996 1293.8342002108197L510.6586167800665 1995.9965149085638C442.1830458322843 2035.5237837232826 357.81689313255947 2035.5237837232826 289.34132218477725 1995.9854490438343L-926.841475075256 1293.8231343460902C-995.3170460230383 1254.2958655313719 -1037.5001223729005 1181.2279607207365 -1037.5001223729005 1102.1623572265694V-302.16227216891866C-1037.5001223729005 -381.22787566308625 -995.3170460230383 -454.29578047372115 -926.841475075256 -493.83411515316914L289.34132218477725 -1195.9964298509135Z " transform="rotate(230, 400, 400)" opacity="0.61"></path><path d="M294.15256771945747 -1126.6053676357158C359.65093993037954 -1164.4140595454467 440.3489990344642 -1164.4140595454467 505.8473712453863 -1126.5947828955395L1669.1526555810701 -454.9612644890017C1734.6510277919924 -417.1525725792708 1775.0000573440348 -347.26153319518517 1775.0000573440348 -271.6335646355469V1071.6334721775288C1775.0000573440348 1147.2614407371675 1734.6510277919924 1217.1524801212527 1669.1526555810701 1254.9717567711596L505.8473712453863 1926.6052751776974C440.3489990344642 1964.4139670874283 359.65093993037954 1964.4139670874283 294.15256771945747 1926.5946904375214L-869.1527166162265 1254.9611720309836C-934.6510888271487 1217.1524801212527 -975.0001183791909 1147.2614407371675 -975.0001183791909 1071.6334721775288V-271.6335646355469C-975.0001183791909 -347.26153319518517 -934.6510888271487 -417.1525725792708 -869.1527166162265 -454.9718492291777L294.15256771945747 -1126.6053676357158Z " transform="rotate(220, 400, 400)" opacity="0.63"></path><path d="M298.9638132541377 -1057.2141986089946C361.4849867281996 -1093.3043136137378 438.51495223664415 -1093.3043136137378 501.0361257107061 -1057.2040949933719L1611.4638971220406 -416.0993728780403C1673.985070596103 -380.0092578732972 1712.5000533503248 -313.2950839157611 1712.5000533503248 -241.10475029065174V1041.1046939400112C1712.5000533503248 1113.2950275651206 1673.985070596103 1180.0092015226564 1611.4638971220406 1216.1094201430228L501.0361257107061 1857.214142258354C438.51495223664415 1893.3042572630975 361.4849867281996 1893.3042572630975 298.9638132541377 1857.2040386427311L-811.463958157197 1216.0993165273999C-873.9851316312592 1180.0092015226564 -912.5001143854812 1113.2950275651206 -912.5001143854812 1041.1046939400112V-241.10475029065174C-912.5001143854812 -313.2950839157611 -873.9851316312592 -380.0092578732972 -811.463958157197 -416.1094764936629L298.9638132541377 -1057.2141986089946Z " transform="rotate(210, 400, 400)" opacity="0.65"></path><path d="M303.7750587888179 -987.8231363937971C363.3190335260199 -1022.1946744935524 436.68090543882386 -1022.1946744935524 496.22488017602586 -987.8135139027277L1553.7751386630111 -377.23758807860236C1613.3191134002136 -342.86604997884706 1650.0000493566154 -279.32874144786024 1650.0000493566154 -210.57604275727977V1010.5758088909706C1650.0000493566154 1079.328507581551 1613.3191134002136 1142.8658161125381 1553.7751386630111 1177.2469767033622L496.22488017602586 1787.8229025274873C436.68090543882386 1822.1944406272432 363.3190335260199 1822.1944406272432 303.7750587888179 1787.8132800364183L-753.7751996981675 1177.2373542122932C-813.3191744353696 1142.8658161125381 -850.0001103917716 1079.328507581551 -850.0001103917716 1010.5758088909706V-210.57604275727977C-850.0001103917716 -279.32874144786024 -813.3191744353696 -342.86604997884706 -753.7751996981675 -377.24721056967144L303.7750587888179 -987.8231363937971Z " transform="rotate(200, 400, 400)" opacity="0.67"></path><path d="M308.58627380592 -918.4319521082869C365.15304980626206 -951.0849133030545 434.84682812342544 -951.0849133030545 491.4136041237675 -918.422810741771L1496.0863496864035 -338.37568120885203C1552.6531256867456 -305.7227200140844 1587.5000148453273 -245.362276909647 1587.5000148453273 -180.04721315359552V980.0470459122425C1587.5000148453273 1045.3621096682937 1552.6531256867456 1105.722552772731 1496.0863496864035 1138.384655334014L491.4136041237675 1718.4317848669334C434.84682812342544 1751.084746061701 365.15304980626206 1751.084746061701 308.58627380592 1718.4226435004175L-696.0864717567163 1138.3755139674986C-752.6532477570581 1105.722552772731 -787.50013691564 1045.3621096682937 -787.50013691564 980.0470459122425V-180.04721315359552C-787.50013691564 -245.362276909647 -752.6532477570581 -305.7227200140844 -696.0864717567163 -338.3848225753677L308.58627380592 -918.4319521082869Z " transform="rotate(190, 400, 400)" opacity="0.68"></path><path d="M313.3975193406002 -849.0407678227766C366.9870966040821 -879.9751521125565 433.0127813256054 -879.9751521125565 486.6023585890873 -849.0321075808142L1438.397591227374 -299.5137743391016C1491.9871684908562 -268.5793900493218 1525.0000108516178 -211.39581237143364 1525.0000108516178 -149.51838354991116V949.5182829335145C1525.0000108516178 1011.3957117550362 1491.9871684908562 1068.5792894329243 1438.397591227374 1099.5223339646664L486.6023585890873 1649.0406672063796C433.0127813256054 1679.9750514961593 366.9870966040821 1679.9750514961593 313.3975193406002 1649.0320069644172L-638.3977132976868 1099.5136737227049C-691.9872905611685 1068.5792894329243 -725.0001329219303 1011.3957117550362 -725.0001329219303 949.5182829335145V-149.51838354991116C-725.0001329219303 -211.39581237143364 -691.9872905611685 -268.5793900493218 -638.3977132976868 -299.52243458106375L313.3975193406002 -849.0407678227766Z " transform="rotate(180, 400, 400)" opacity="0.70"></path><path d="M318.2087648752804 -779.6495987960556C368.8211434019022 -808.8654061808477 431.1787345277853 -808.8654061808477 481.7911130544071 -779.6414196786466L1380.708832768345 -260.6518827281402C1431.3212112949668 -231.43607534334808 1462.5000068579084 -177.42936309200923 1462.5000068579084 -118.98956920501587V918.9895046959971C1462.5000068579084 977.4292985829902 1431.3212112949668 1031.436010834329 1380.708832768345 1060.65999733653L481.7911130544071 1579.6495342870362C431.1787345277853 1608.8653416718284 368.8211434019022 1608.8653416718284 318.2087648752804 1579.6413551696273L-580.7089548386573 1060.6518182191212C-631.321333365279 1031.436010834329 -662.5001289282206 977.4292985829902 -662.5001289282206 918.9895046959971V-118.98956920501587C-662.5001289282206 -177.42936309200923 -631.321333365279 -231.43607534334808 -580.7089548386573 -260.66006184554885L318.2087648752804 -779.6495987960556Z " transform="rotate(170, 400, 400)" opacity="0.72"></path><path d="M323.0200104099604 -710.2585365808579C370.65519019972226 -737.7557670606623 429.34468772996524 -737.7557670606623 476.9798675197269 -710.2508385880024L1323.0200743093155 -221.79009792870238C1370.655254099077 -194.29286744889794 1400.0000028641984 -143.4630206241086 1400.0000028641984 -88.46086167164424V888.460619646956C1400.0000028641984 943.4627785994203 1370.655254099077 994.2926254242097 1323.0200743093155 1021.7975538968694L476.9798675197269 1510.2582945561694C429.34468772996524 1537.7555250359742 370.65519019972226 1537.7555250359742 323.0200104099604 1510.250596563314L-523.0201963796278 1021.7898559040141C-570.6553761693895 994.2926254242097 -600.000124934511 943.4627785994203 -600.000124934511 888.460619646956V-88.46086167164424C-600.000124934511 -143.4630206241086 -570.6553761693895 -194.29286744889794 -523.0201963796278 -221.7977959215575L323.0200104099604 -710.2585365808579Z " transform="rotate(160, 400, 400)" opacity="0.74"></path><path d="M327.8313780149533 -640.8673522953477C372.4893590678548 -666.6460058701643 427.5107630024577 -666.6460058701643 472.1687440553592 -640.8601354270456L1265.3314379205985 -182.92819105895182C1309.9894189735 -157.1495374841353 1337.500120940801 -109.49655608589512 1337.500120940801 -57.93203206795988V857.931856668228C1337.500120940801 909.4963806861633 1309.9894189735 957.1493620844035 1265.3314379205985 982.9352325275217L472.1687440553592 1440.8671768956156C427.5107630024577 1466.6458304704324 372.4893590678548 1466.6458304704324 327.8313780149533 1440.8599600273137L-465.3313158502858 982.9280156592199C-509.9892969031873 957.1493620844035 -537.4999988704888 909.4963806861633 -537.4999988704888 857.931856668228V-57.93203206795988C-537.4999988704888 -109.49655608589512 -509.9892969031873 -157.1495374841353 -465.3313158502858 -182.93540792725366L327.8313780149533 -640.8673522953477Z " transform="rotate(150, 400, 400)" opacity="0.75"></path><path d="M332.64256251447705 -571.4761069746813C374.32334483051864 -595.5361836445102 425.67665516948136 -595.5361836445102 467.35743748552295 -571.4693712309328L1207.6426184264126 -144.06622315404513C1249.3234007424542 -120.00614648421629 1275.0000559119353 -75.53003051252563 1275.0000559119353 -27.403141429119273V827.4031547246561C1275.0000559119353 875.5300438080624 1249.3234007424542 920.006159779753 1207.6426184264126 944.0729721933301L467.35743748552295 1371.476120270218C425.67665516948136 1395.5361969400465 374.32334483051864 1395.5361969400465 332.64256251447705 1371.4693845264692L-407.6426184264126 944.0662364495818C-449.323400742454 920.006159779753 -475.00005591193536 875.5300438080624 -475.00005591193536 827.4031547246561V-27.403141429119273C-475.00005591193536 -75.53003051252563 -449.323400742454 -120.00614648421629 -407.6426184264126 -144.07295889779357L332.64256251447705 -571.4761069746813Z " transform="rotate(140, 400, 400)" opacity="0.77"></path><path d="M337.4538080491574 -502.0849226891712C376.1573916283387 -524.4264224540121 423.8426083716613 -524.4264224540121 462.5461919508425 -502.07866806997606L1149.953859967383 -105.20431628429469C1188.6574435465645 -82.86281651945365 1212.5000519182258 -41.56356597431227 1212.5000519182258 3.1256881745649707V796.8743917459278C1212.5000519182258 841.563645894805 1188.6574435465645 882.8628964399463 1149.953859967383 905.2106508239824L462.5461919508425 1302.0850026096637C423.8426083716613 1324.4265023745047 376.1573916283387 1324.4265023745047 337.4538080491574 1302.0787479904684L-349.9538599673831 905.2043962047874C-388.6574435465644 882.8628964399463 -412.5000519182257 841.563645894805 -412.5000519182257 796.8743917459278V3.1256881745649707C-412.5000519182257 -41.56356597431227 -388.6574435465644 -82.86281651945365 -349.9538599673831 -105.21057090348961L337.4538080491574 -502.0849226891712Z " transform="rotate(130, 400, 400)" opacity="0.79"></path><path d="M342.2650535838376 -432.6937994388173C377.99143842615877 -453.31672229867047 422.00856157384123 -453.31672229867047 457.73494641616253 -432.68802594417565L1092.2651015083536 -66.3424704497005C1127.991486350675 -45.71954758984725 1150.0000479245161 -7.59716247125516 1150.0000479245161 33.65445674309308V766.3455677320433C1150.0000479245161 807.5971869463915 1127.991486350675 845.7195720649836 1092.2651015083536 866.3482684194782L457.73494641616253 1232.6938239139533C422.00856157384123 1253.3167467738067 377.99143842615877 1253.3167467738067 342.2650535838376 1232.6880504193118L-292.26510150835367 866.3424949248367C-327.99148635067485 845.7195720649836 -350.000047924516 807.5971869463915 -350.000047924516 766.3455677320433V33.65445674309308C-350.000047924516 -7.59716247125516 -327.99148635067485 -45.71954758984725 -292.26510150835367 -66.34824394434202L342.2650535838376 -432.6937994388173Z " transform="rotate(120, 400, 400)" opacity="0.81"></path><path d="M347.07626860093967 -363.3026914472524C379.8254547064007 -382.20703740211786 420.17448425844304 -382.20703740211786 452.9236703639041 -363.29739907716424L1034.576312531746 -27.48063987389537C1067.3254986372071 -8.576293919029922 1087.5000134132283 26.369225773012886 1087.5000134132283 64.18321005283201V735.8167284593699C1087.5000134132283 773.6307127391892 1067.3254986372071 808.5762324312318 1034.576312531746 827.4858707561852L452.9236703639041 1163.3026299594542C420.17448425844304 1182.2069759143196 379.8254547064007 1182.2069759143196 347.07626860093967 1163.2973375893662L-234.5763735669023 827.4805783860972C-267.3255596723634 808.5762324312318 -287.5000744483845 773.6307127391892 -287.5000744483845 735.8167284593699V64.18321005283201C-287.5000744483845 26.369225773012886 -267.3255596723634 -8.576293919029922 -234.5763735669023 -27.48593224398337L347.07626860093967 -363.3026914472524Z " transform="rotate(110, 400, 400)" opacity="0.82"></path><path d="M351.8875141356199 -293.91150716174224C381.6595015042209 -311.09727621161994 418.34043746062287 -311.09727621161994 448.11242482922387 -293.9066959162076L976.8875540727165 11.381266995855071C1006.6595414413177 28.56703604573272 1025.0000094195186 60.33569031122613 1025.0000094195186 94.71203965651637V705.2879654806416C1025.0000094195186 739.6643148259318 1006.6595414413177 771.4329690914253 976.8875540727165 788.6235493868373L448.11242482922387 1093.9115122988999C418.34043746062287 1111.0972813487779 381.6595015042209 1111.0972813487779 351.8875141356199 1093.9067010533654L-176.88761510787282 788.6187381413029C-206.65960247647388 771.4329690914253 -225.0000704546748 739.6643148259318 -225.0000704546748 705.2879654806416V94.71203965651637C-225.0000704546748 60.33569031122613 -206.65960247647388 28.56703604573272 -176.88761510787282 11.376455750320474L351.8875141356199 -293.91150716174224Z " transform="rotate(100, 400, 400)" opacity="0.84"></path><path d="M356.6987596703001 -224.52038391138836C383.49354830204106 -239.98757605627827 416.5063906628027 -239.98757605627827 443.30117929454366 -224.5160537904071L919.198795613687 50.24311283044926C945.9935842454281 65.71030497533911 962.5000054258089 94.30209381428313 962.5000054258089 125.24080822504447V674.7591414667572C962.5000054258089 705.6978558775181 945.9935842454281 734.2896447164621 919.198795613687 749.7611669823332L443.30117929454366 1024.5203336031898C416.5063906628027 1039.9875257480796 383.49354830204106 1039.9875257480796 356.6987596703001 1024.5160034822086L-119.19885664884339 749.7568368613524C-145.9936452805843 734.2896447164621 -162.50006646096517 705.6978558775181 -162.50006646096517 674.7591414667572V125.24080822504447C-162.50006646096517 94.30209381428313 -145.9936452805843 65.71030497533911 -119.19885664884339 50.23878270946807L356.6987596703001 -224.52038391138836Z " transform="rotate(90, 400, 400)" opacity="0.86"></path><path d="M361.5100052049802 -155.12921488466725C385.3275950998611 -168.87783012456939 414.6723438649826 -168.87783012456939 438.48993375986345 -155.12536588823946L861.5100371546578 89.10500444141053C885.3276270495385 102.8536196813127 900.0000014320992 128.26854309370742 900.0000014320992 155.76962256993966V644.2303632292396C900.0000014320992 671.7314427054719 885.3276270495385 697.1463661178666 861.5100371546578 710.8988303541964L438.48993375986345 955.1292006838464C414.6723438649826 968.8778159237488 385.3275950998611 968.8778159237488 361.5100052049802 955.1253516874187L-61.5100981898139 710.8949813577688C-85.32768808469473 697.1463661178666 -100.00006246725547 671.7314427054719 -100.00006246725547 644.2303632292396V155.76962256993966C-100.00006246725547 128.26854309370742 -85.32768808469473 102.8536196813127 -61.5100981898139 89.10115544498296L361.5100052049802 -155.12921488466725Z " transform="rotate(80, 400, 400)" opacity="0.88"></path><path d="M366.3212507396604 -85.73803059915707C387.1616418976812 -97.76806893407147 412.83829706716256 -97.76806893407147 433.67868822518335 -85.7346627272828L803.8212786956283 127.96691131116103C824.6616698536491 139.99694964607545 837.4999974383895 162.23500763192078 837.4999974383895 186.2984521736239V613.7016002505117C837.4999974383895 637.7650447922148 824.6616698536491 660.0031027780601 803.8212786956283 672.0365089848486L433.67868822518335 885.7380830232926C412.83829706716256 897.7681213582068 387.1616418976812 897.7681213582068 366.3212507396604 885.7347151514182L-3.821339730784416 672.0331411129745C-24.661730888805153 660.0031027780601 -37.500058473545835 637.7650447922148 -37.500058473545835 613.7016002505117V186.2984521736239C-37.500058473545835 162.23500763192078 -24.661730888805153 139.99694964607545 -3.821339730784416 127.96354343928681L366.3212507396604 -85.73803059915707Z " transform="rotate(70, 400, 400)" opacity="0.89"></path><path d="M371.13255730949686 -16.346907348803143C388.9957497306575 -26.658368778729766 411.00431130449874 -26.658368778729766 428.8675037256594 -16.344020601482327L746.1325812717549 166.82875714575522C763.9957736929156 177.14021857568184 775.0000544798362 196.2014111349779 775.0000544798362 216.827220742152V583.1727762366271C775.0000544798362 603.7985858438012 763.9957736929156 622.8597784030973 746.1325812717549 633.1741265803446L428.8675037256594 816.3469043275823C411.00431130449874 826.6583657575088 388.9957497306575 826.6583657575088 371.13255730949686 816.3440175802614L53.86747976340132 633.1712398330238C36.00428734224067 622.8597784030973 25.000006555320113 603.7985858438012 25.000006555320113 583.1727762366271V216.827220742152C25.000006555320113 196.2014111349779 36.00428734224067 177.14021857568184 53.86747976340132 166.82587039843446L371.13255730949686 -16.346907348803143Z " transform="rotate(60, 400, 400)" opacity="0.91"></path><path d="M375.94380284417707 53.044246419128854C390.8297965284776 44.45136189419003 409.1702645066787 44.45136189419003 424.0562581909792 53.04665204189621L688.4438228127254 205.69063349792754C703.3298164970261 214.28351802286636 712.5000504861265 230.16784515561307 712.5000504861265 247.35601982825818V552.6439827403208C712.5000504861265 569.8321574129659 703.3298164970261 585.7164845457127 688.4438228127254 594.3117746934187L424.0562581909792 746.9557561494499C409.1702645066787 755.5486406743889 390.8297965284776 755.5486406743889 375.94380284417707 746.9533505266827L111.55623822243075 594.3093690706514C96.67024453813025 585.7164845457127 87.50001054902975 569.8321574129659 87.50001054902975 552.6439827403208V247.35601982825818C87.50001054902975 230.16784515561307 96.67024453813025 214.28351802286636 111.55623822243075 205.68822787516024L375.94380284417707 53.044246419128854Z " transform="rotate(50, 400, 400)" opacity="0.93"></path><path d="M380.7550331200682 122.4354001870609C392.6638280675087 115.56109256710982 407.33620245006944 115.56109256710982 419.2449973975099 122.4373246852748L630.755049094907 244.5525098500998C642.6638440423474 251.42681747005088 650.0000312336277 264.13427917624824 650.0000312336277 277.88481891436436V522.1151892440143C650.0000312336277 535.8657289821305 642.6638440423474 548.5731906883278 630.755049094907 555.4494228064927L419.2449973975099 677.5646079713177C407.33620245006944 684.4389155912689 392.6638280675087 684.4389155912689 380.7550331200682 677.5626834731039L169.24498142267117 555.4474983082789C157.33618647523076 548.5731906883278 149.9999992839504 535.8657289821305 149.9999992839504 522.1151892440143V277.88481891436436C149.9999992839504 264.13427917624824 157.33618647523076 251.42681747005088 169.24498142267117 244.550585351886L380.7550331200682 122.4354001870609Z " transform="rotate(40, 400, 400)" opacity="0.95"></path><path d="M385.56626339595937 191.82655395499296C394.4978596065397 186.67082324002965 405.5021403934603 186.67082324002965 414.43373660404063 191.82799732865334L573.0662753770885 283.4143862022721C581.9978715876687 288.57011691723545 587.5000119811291 298.1007131968835 587.5000119811291 308.41361800047054V491.58639574770814C587.5000119811291 501.89930055129514 581.9978715876687 511.4298968309431 573.0662753770885 516.5870709195668L414.43373660404063 608.1734597931857C405.5021403934603 613.3291905081489 394.4978596065397 613.3291905081489 385.56626339595937 608.1720164195252L226.9337246229116 516.5856275459064C218.00212841233127 511.4298968309431 212.49998801887097 501.89930055129514 212.49998801887097 491.58639574770814V308.41361800047054C212.49998801887097 298.1007131968835 218.00212841233127 288.57011691723545 226.9337246229116 283.4129428286118L385.56626339595937 191.82655395499296Z " transform="rotate(30, 400, 400)" opacity="0.96"></path><path d="M390.3775089306396 261.21770772292496C396.3319064043598 257.7805539129495 403.6680935956402 257.7805539129495 409.6224910693604 261.21866997203193L515.377516918059 322.27626255444443C521.3319143917792 325.71341636441997 525.0000079874194 332.06714721751865 525.0000079874194 338.9424170865767V461.0576022514017C525.0000079874194 467.93287212045976 521.3319143917792 474.28660297355844 515.377516918059 477.7247190326409L409.6224910693604 538.7823116150535C403.6680935956402 542.2194654250291 396.3319064043598 542.2194654250291 390.3775089306396 538.7813493659464L284.6224830819411 477.723756783534C278.66808560822085 474.28660297355844 274.99999201258066 467.93287212045976 274.99999201258066 461.0576022514017V338.9424170865767C274.99999201258066 332.06714721751865 278.66808560822085 325.71341636441997 284.6224830819411 322.2753003053375L390.3775089306396 261.21770772292496Z " transform="rotate(20, 400, 400)" opacity="0.98"></path><path d="M395.1887544653198 330.60885386146253C398.1659532021799 328.89027695647474 401.83404679782006 328.89027695647474 404.8112455346802 330.60933498601594L457.6887584590295 361.1381312772222C460.6659571958896 362.85670818221 462.5000039937097 366.0335736087593 462.5000039937097 369.47120854328836V430.52880112570085C462.5000039937097 433.96643606022985 460.6659571958896 437.14330148677925 457.6887584590295 438.86235951632045L404.8112455346802 469.39115580752673C401.83404679782006 471.10973271251453 398.1659532021799 471.10973271251453 395.1887544653198 469.3906746829732L342.3112415409705 438.861878391767C339.3340428041104 437.14330148677925 337.4999960062903 433.96643606022985 337.4999960062903 430.52880112570085V369.47120854328836C337.4999960062903 366.0335736087593 339.3340428041104 362.85670818221 342.3112415409705 361.13765015266875L395.1887544653198 330.60885386146253Z " transform="rotate(10, 400, 400)" opacity="1.00"></path></g></svg>